<svg width="356" height="300" viewBox="0 0 356 300" fill="none" xmlns="http://www.w3.org/2000/svg">
<path d="M314.69 299.814H309.651L308.546 222.934H315.794L314.69 299.814Z" fill="#263238"/>
<path opacity="0.5" d="M314.69 299.814H309.651L308.546 222.934H315.794L314.69 299.814Z" fill="white"/>
<path d="M270.19 299.814H265.14L264.046 222.934H271.295L270.19 299.814Z" fill="#263238"/>
<path opacity="0.5" d="M270.19 299.814H265.14L264.046 222.934H271.295L270.19 299.814Z" fill="white"/>
<path d="M259.859 299.814H254.82L253.716 222.934H260.964L259.859 299.814Z" fill="#263238"/>
<path opacity="0.5" d="M259.859 299.814H254.82L253.716 222.934H260.964L259.859 299.814Z" fill="white"/>
<path d="M215.36 299.814H210.31L209.216 222.934H216.464L215.36 299.814Z" fill="#263238"/>
<path opacity="0.5" d="M215.36 299.814H210.31L209.216 222.934H216.464L215.36 299.814Z" fill="white"/>
<path d="M290.515 224.701H208.722C207.836 224.701 206.959 224.527 206.141 224.188C205.323 223.849 204.58 223.353 203.953 222.726C203.327 222.1 202.83 221.357 202.492 220.539C202.153 219.721 201.978 218.844 201.978 217.958V208.974C201.981 207.187 202.693 205.475 203.957 204.213C205.221 202.95 206.935 202.241 208.722 202.241H281.141L287.38 142.887C287.804 139.411 289.467 136.204 292.064 133.855C294.661 131.505 298.017 130.17 301.518 130.095H331.911L324.652 152.25L318.024 201.873L313.364 215.738L290.515 224.701Z" fill="#4542F7"/>
<path opacity="0.2" d="M290.515 224.701H208.722C207.836 224.701 206.959 224.527 206.141 224.188C205.323 223.849 204.58 223.353 203.953 222.726C203.327 222.1 202.83 221.357 202.492 220.539C202.153 219.721 201.978 218.844 201.978 217.958V208.974C201.981 207.187 202.693 205.475 203.957 204.213C205.221 202.95 206.935 202.241 208.722 202.241H281.141L287.38 142.887C287.804 139.411 289.467 136.204 292.064 133.855C294.661 131.505 298.017 130.17 301.518 130.095H331.911L324.652 152.25L318.024 201.873L313.364 215.738L290.515 224.701Z" fill="black"/>
<path d="M334.425 130.095H328.355C324.855 130.171 321.5 131.506 318.905 133.856C316.309 136.205 314.649 139.412 314.227 142.887L307.988 202.241H263.362C261.578 202.244 259.867 202.954 258.605 204.216C257.343 205.478 256.632 207.189 256.63 208.974V217.958C256.63 219.745 257.339 221.458 258.601 222.723C259.863 223.987 261.576 224.699 263.362 224.701H317.351C319.401 224.702 321.378 223.943 322.901 222.572C324.424 221.2 325.385 219.313 325.599 217.274L332.668 150.009C335.499 149.952 338.206 148.833 340.251 146.875C342.297 144.917 343.533 142.263 343.714 139.437C343.737 138.208 343.512 136.988 343.054 135.847C342.596 134.707 341.914 133.671 341.047 132.799C340.181 131.928 339.148 131.24 338.011 130.775C336.873 130.311 335.654 130.079 334.425 130.095Z" fill="#4542F7"/>
<path d="M217.106 268.054L220.609 290.946L227.836 290.325L226.826 267.223L217.106 268.054Z" fill="#EBB376"/>
<path d="M228.089 281.373C228.089 281.373 228.436 287.285 229.856 290.23C231.276 293.176 233.244 297.09 228.436 297.521C225.596 297.773 220.63 298.952 215.191 299.478C211.436 299.835 206.291 299.478 206.113 297.489C205.902 295.185 219.22 290.357 219.168 288.137C219.115 285.917 218.516 282.088 218.516 282.088L228.089 281.373Z" fill="#263238"/>
<path opacity="0.1" d="M228.089 281.373C228.089 281.373 228.436 287.285 229.856 290.23C231.276 293.176 233.244 297.09 228.436 297.521C225.596 297.773 220.63 298.952 215.191 299.478C211.436 299.835 206.291 299.478 206.113 297.489C205.902 295.185 219.22 290.357 219.168 288.137C219.115 285.917 218.516 282.088 218.516 282.088L228.089 281.373Z" fill="white"/>
<path d="M264.204 159.162L262.247 175.447C262.247 175.447 206.67 180.328 203.504 194.225C200.505 207.438 216.906 274.524 216.906 274.524L228.005 273.42C228.005 273.42 229.551 221.545 224.691 203.041C224.691 203.041 266.939 202.725 281.025 203.041C287.337 203.188 303.528 202.978 299.52 184.568C294.954 163.528 290.125 159.162 290.125 159.162L289.957 149.946H264.709L264.204 159.162Z" fill="#4542F7"/>
<path opacity="0.2" d="M264.204 159.162L262.247 175.447C262.247 175.447 206.67 180.328 203.504 194.225C200.505 207.438 216.906 274.524 216.906 274.524L228.005 273.42C228.005 273.42 229.551 221.545 224.691 203.041C224.691 203.041 266.939 202.725 281.025 203.041C287.337 203.188 303.528 202.978 299.52 184.568C294.954 163.528 290.125 159.162 290.125 159.162L289.957 149.946H264.709L264.204 159.162Z" fill="white"/>
<path d="M215.833 274.808L216.759 277.533C216.846 277.778 217.012 277.987 217.231 278.128C217.45 278.269 217.709 278.333 217.969 278.311L227.658 277.417C227.929 277.393 228.183 277.275 228.375 277.083C228.567 276.89 228.686 276.636 228.71 276.365L228.888 273.546C228.897 273.379 228.869 273.212 228.807 273.057C228.745 272.901 228.651 272.761 228.53 272.645C228.41 272.53 228.265 272.441 228.108 272.386C227.95 272.331 227.782 272.31 227.615 272.325L216.822 273.314C216.651 273.332 216.487 273.387 216.34 273.475C216.193 273.564 216.068 273.684 215.974 273.827C215.879 273.97 215.817 274.132 215.793 274.302C215.769 274.471 215.782 274.644 215.833 274.808V274.808Z" fill="#4542F7"/>
<path opacity="0.6" d="M215.833 274.808L216.759 277.533C216.846 277.778 217.012 277.987 217.231 278.128C217.45 278.269 217.709 278.333 217.969 278.311L227.658 277.417C227.929 277.393 228.183 277.275 228.375 277.083C228.567 276.89 228.686 276.636 228.71 276.365L228.888 273.546C228.897 273.379 228.869 273.212 228.807 273.057C228.745 272.901 228.651 272.761 228.53 272.645C228.41 272.53 228.265 272.441 228.108 272.386C227.95 272.331 227.782 272.31 227.615 272.325L216.822 273.314C216.651 273.332 216.487 273.387 216.34 273.475C216.193 273.564 216.068 273.684 215.974 273.827C215.879 273.97 215.817 274.132 215.793 274.302C215.769 274.471 215.782 274.644 215.833 274.808V274.808Z" fill="white"/>
<path d="M238.398 267.591L239.945 290.704H247.193L248.161 267.591H238.398Z" fill="#EBB376"/>
<path d="M248.024 283.698C248.024 283.698 247.835 289.62 248.992 292.682C250.149 295.743 251.759 299.814 246.888 299.814C244.048 299.814 239.009 299.877 233.633 299.478C229.867 299.204 224.659 299.814 224.659 297.784C224.659 295.469 238.746 291.714 238.882 289.505C239.019 287.295 238.882 283.571 238.882 283.571L248.024 283.698Z" fill="#263238"/>
<path d="M272.904 159.162L271.126 175.447C271.126 175.447 236.557 180.149 231.013 188.428C225.469 196.708 238.493 278.175 238.493 278.175H248.161C255.062 232.939 251.475 202.978 251.475 202.978H294.828C322.443 202.978 297.868 159.162 297.868 159.162L297.973 149.483L272.42 150.956L272.904 159.162Z" fill="#4542F7"/>
<path opacity="0.3" d="M272.904 159.162L271.126 175.447C271.126 175.447 236.557 180.149 231.013 188.428C225.469 196.708 238.493 278.175 238.493 278.175H248.161C255.062 232.939 251.475 202.978 251.475 202.978H294.828C322.443 202.978 297.868 159.162 297.868 159.162L297.973 149.483L272.42 150.956L272.904 159.162Z" fill="white"/>
<path d="M236.726 276.597L237.452 279.574C237.507 279.809 237.642 280.018 237.834 280.166C238.025 280.313 238.262 280.39 238.504 280.384H248.13C248.374 280.389 248.613 280.309 248.805 280.158C248.997 280.006 249.13 279.792 249.182 279.553L249.823 276.565C249.858 276.409 249.858 276.247 249.821 276.091C249.784 275.935 249.712 275.79 249.611 275.666C249.509 275.543 249.381 275.444 249.235 275.377C249.09 275.31 248.931 275.278 248.771 275.282H237.767C237.605 275.278 237.444 275.312 237.297 275.381C237.15 275.45 237.021 275.553 236.92 275.68C236.819 275.808 236.749 275.957 236.715 276.116C236.682 276.275 236.685 276.439 236.726 276.597Z" fill="#4542F7"/>
<path opacity="0.6" d="M236.726 276.597L237.452 279.574C237.507 279.809 237.642 280.018 237.834 280.166C238.025 280.313 238.262 280.39 238.504 280.384H248.13C248.374 280.389 248.613 280.309 248.805 280.158C248.997 280.006 249.13 279.792 249.182 279.553L249.823 276.565C249.858 276.409 249.858 276.247 249.821 276.091C249.784 275.935 249.712 275.79 249.611 275.666C249.509 275.543 249.381 275.444 249.235 275.377C249.09 275.31 248.931 275.278 248.771 275.282H237.767C237.605 275.278 237.444 275.312 237.297 275.381C237.15 275.45 237.021 275.553 236.92 275.68C236.819 275.808 236.749 275.957 236.715 276.116C236.682 276.275 236.685 276.439 236.726 276.597Z" fill="white"/>
<path d="M223.26 149.873L215.433 151.398L208.069 149.241C207.049 149.103 206.011 149.228 205.053 149.606C204.095 149.984 203.25 150.601 202.599 151.398C201.533 152.672 200.951 154.282 200.958 155.943V156.227H216.096L224.312 155.122L223.26 149.873Z" fill="#EBB376"/>
<path d="M265.551 104.605C265.538 104.245 265.42 103.896 265.21 103.602C265 103.309 264.709 103.084 264.372 102.956C264.034 102.828 263.667 102.802 263.315 102.882C262.963 102.962 262.643 103.144 262.395 103.406C259.87 105.889 256.241 108.803 254.547 124.446C252.369 144.592 218.779 149.589 218.779 149.589L220.378 156.953C220.378 156.953 245.121 157.794 255.367 147.106C268.623 133.377 266.687 112.769 265.551 104.605Z" fill="#4542F7"/>
<path opacity="0.2" d="M265.551 104.605C265.538 104.245 265.42 103.896 265.21 103.602C265 103.309 264.709 103.084 264.372 102.956C264.034 102.828 263.667 102.802 263.315 102.882C262.963 102.962 262.643 103.144 262.395 103.406C259.87 105.889 256.241 108.803 254.547 124.446C252.369 144.592 218.779 149.589 218.779 149.589L220.378 156.953C220.378 156.953 245.121 157.794 255.367 147.106C268.623 133.377 266.687 112.769 265.551 104.605Z" fill="white"/>
<path d="M295.659 72.0878C292.619 51.7105 275.46 59.0535 275.46 59.0535C264.372 63.0511 268.096 76.8218 268.096 84.3015C268.096 91.7812 267.15 94.3691 267.15 94.3691C268.433 94.0851 269.622 93.8431 270.769 93.6117L271.168 91.2657L271.863 93.3697C281.183 91.5919 286.212 91.6129 288.926 92.181C289.69 90.7915 290.239 89.2949 290.557 87.7415C290.557 87.7415 291.882 88.6042 290.557 92.6859C292.166 93.4118 292.093 94.3481 292.093 94.3481C292.093 94.3481 298.72 92.465 295.659 72.0878Z" fill="#263238"/>
<path d="M306.2 102.238L266.108 101.765C265.172 101.75 264.261 102.069 263.538 102.665C262.815 103.26 262.328 104.093 262.163 105.015C257.429 131.189 260.659 130.263 260.659 130.263L262.679 162.297H267.16C268.471 162.298 269.743 161.845 270.757 161.014C271.772 160.184 272.467 159.027 272.725 157.742L273.178 155.49L274.366 158.646C274.77 159.718 275.488 160.642 276.427 161.297C277.366 161.953 278.481 162.308 279.626 162.318H300.088C297.71 137.722 305.506 113.989 308.22 105.121C308.326 104.796 308.355 104.451 308.305 104.113C308.255 103.775 308.127 103.454 307.931 103.174C307.735 102.894 307.476 102.664 307.176 102.502C306.875 102.339 306.541 102.249 306.2 102.238Z" fill="#4542F7"/>
<path opacity="0.4" d="M306.2 102.238L266.108 101.765C265.172 101.75 264.261 102.069 263.538 102.665C262.815 103.26 262.328 104.093 262.163 105.015C257.429 131.189 260.659 130.263 260.659 130.263L262.679 162.297H267.16C268.471 162.298 269.743 161.845 270.757 161.014C271.772 160.184 272.467 159.027 272.725 157.742L273.178 155.49L274.366 158.646C274.77 159.718 275.488 160.642 276.427 161.297C277.366 161.953 278.481 162.308 279.626 162.318H300.088C297.71 137.722 305.506 113.989 308.22 105.121C308.326 104.796 308.355 104.451 308.305 104.113C308.255 103.775 308.127 103.454 307.931 103.174C307.735 102.894 307.476 102.664 307.176 102.502C306.875 102.339 306.541 102.249 306.2 102.238Z" fill="white"/>
<path d="M217.716 149.473L219.199 157.237C219.252 157.502 219.397 157.74 219.609 157.908C219.821 158.075 220.086 158.162 220.357 158.152L221.85 158.089C222.007 158.082 222.16 158.042 222.3 157.972C222.44 157.902 222.564 157.803 222.663 157.682C222.762 157.561 222.835 157.42 222.876 157.269C222.917 157.118 222.926 156.96 222.902 156.805L221.672 148.537C221.649 148.374 221.591 148.218 221.501 148.08C221.412 147.942 221.293 147.825 221.154 147.738C221.015 147.651 220.858 147.595 220.695 147.575C220.531 147.555 220.366 147.571 220.209 147.621L218.453 148.189C218.197 148.28 217.982 148.459 217.847 148.695C217.712 148.93 217.665 149.206 217.716 149.473V149.473Z" fill="#4542F7"/>
<path opacity="0.6" d="M217.716 149.473L219.199 157.237C219.252 157.502 219.397 157.74 219.609 157.908C219.821 158.075 220.086 158.162 220.357 158.152L221.85 158.089C222.007 158.082 222.16 158.042 222.3 157.972C222.44 157.902 222.564 157.803 222.663 157.682C222.762 157.561 222.835 157.42 222.876 157.269C222.917 157.118 222.926 156.96 222.902 156.805L221.672 148.537C221.649 148.374 221.591 148.218 221.501 148.08C221.412 147.942 221.293 147.825 221.154 147.738C221.015 147.651 220.858 147.595 220.695 147.575C220.531 147.555 220.366 147.571 220.209 147.621L218.453 148.189C218.197 148.28 217.982 148.459 217.847 148.695C217.712 148.93 217.665 149.206 217.716 149.473V149.473Z" fill="white"/>
<path d="M287.148 82.7761C286.559 88.1413 286.37 97.8828 290.367 101.081C290.367 101.081 288.842 106.499 278.564 107.509C271.263 104.289 273.977 102.501 273.977 102.501C279.732 100.555 280.289 96.2417 278.985 92.2336L287.148 82.7761Z" fill="#EBB376"/>
<path opacity="0.1" d="M286.243 88.7409L284.139 88.1939L281.531 89.2459L278.964 92.2125C279.308 93.2309 279.503 94.294 279.542 95.3685C285.202 94.5059 286.243 88.7409 286.243 88.7409Z" fill="black"/>
<path d="M290.914 70.92C291.167 79.7674 291.472 83.544 287.443 88.4253C281.373 95.7893 270.453 94.2113 267.549 85.6165C264.94 77.8843 264.951 64.7238 273.241 60.4316C275.068 59.4789 277.109 59.0093 279.169 59.0673C281.229 59.1254 283.24 59.7092 285.011 60.7633C286.782 61.8174 288.254 63.3069 289.287 65.09C290.32 66.8732 290.88 68.891 290.914 70.9516V70.92Z" fill="#EBB376"/>
<path d="M293.628 77.6844C293.29 79.3634 292.299 80.8391 290.872 81.7872C288.968 83.0286 287.337 81.4927 287.295 79.3361C287.295 77.4109 288.211 74.4337 290.388 74.0761C290.865 74.0087 291.351 74.06 291.802 74.2254C292.254 74.3908 292.659 74.6652 292.979 75.0242C293.3 75.3832 293.526 75.8157 293.64 76.2834C293.753 76.7512 293.749 77.2396 293.628 77.7055V77.6844Z" fill="#EBB376"/>
<path d="M271.968 76.3589C271.484 78.0482 270.777 79.6651 269.864 81.1665C270.25 81.396 270.682 81.5375 271.13 81.5812C271.577 81.6248 272.028 81.5694 272.452 81.419L271.968 76.3589Z" fill="#D58745"/>
<path d="M277.912 71.2988C277.974 71.2801 278.028 71.2435 278.069 71.1936C278.133 71.127 278.169 71.0384 278.169 70.9463C278.169 70.8542 278.133 70.7657 278.069 70.6991V70.6991C277.596 70.2451 277.019 69.9124 276.389 69.7292C275.759 69.546 275.094 69.5179 274.451 69.6471C274.36 69.6718 274.284 69.7308 274.236 69.8114C274.189 69.892 274.176 69.9878 274.198 70.0784C274.22 70.1677 274.277 70.2444 274.356 70.2918C274.435 70.3391 274.53 70.3532 274.619 70.3309C275.154 70.2368 275.703 70.2707 276.223 70.4297C276.742 70.5888 277.216 70.8686 277.607 71.2462C277.651 71.2766 277.701 71.297 277.753 71.3061C277.806 71.3152 277.86 71.3127 277.912 71.2988Z" fill="#2E353A"/>
<path d="M265.561 72.0878C265.5 72.0763 265.443 72.0511 265.393 72.0141C265.356 71.9855 265.326 71.9498 265.304 71.9093C265.281 71.8687 265.267 71.8241 265.262 71.778C265.257 71.7319 265.262 71.6853 265.275 71.641C265.288 71.5966 265.311 71.5554 265.34 71.5197C265.745 71.0005 266.269 70.5861 266.868 70.3115C267.467 70.0369 268.122 69.9101 268.78 69.9417C268.871 69.9548 268.954 70.0026 269.011 70.0751C269.068 70.1476 269.094 70.2392 269.085 70.3309C269.075 70.4213 269.029 70.5038 268.958 70.5609C268.887 70.6179 268.797 70.6449 268.707 70.636C268.163 70.6191 267.623 70.7314 267.131 70.9636C266.639 71.1959 266.209 71.5415 265.877 71.972C265.839 72.0173 265.79 72.0518 265.734 72.0721C265.679 72.0924 265.619 72.0978 265.561 72.0878Z" fill="#2E353A"/>
<path d="M276.912 74.7178C276.986 75.4331 276.649 76.0433 276.176 76.0959C275.702 76.1485 275.282 75.6014 275.219 74.8756C275.155 74.1497 275.482 73.55 275.944 73.4974C276.407 73.4448 276.849 73.9919 276.912 74.7178Z" fill="#2E353A"/>
<path d="M268.812 75.4542C268.885 76.159 268.549 76.7797 268.086 76.8218C267.623 76.8638 267.192 76.3168 267.118 75.6014C267.044 74.8861 267.381 74.2759 267.844 74.2338C268.307 74.1918 268.759 74.7178 268.812 75.4542Z" fill="#2E353A"/>
<path d="M268.054 74.2444L266.298 73.9077C266.298 73.9077 267.297 75.1701 268.054 74.2444Z" fill="#2E353A"/>
<path d="M276.155 73.508L274.398 73.1713C274.398 73.1713 275.397 74.4337 276.155 73.508Z" fill="#2E353A"/>
<path d="M272.01 84.2594C273.088 84.3938 274.183 84.2808 275.211 83.929C276.239 83.5772 277.173 82.9959 277.943 82.229C277.943 82.229 280.573 87.0156 273.483 87.7941C273.37 86.4918 272.855 85.2567 272.01 84.2594Z" fill="#263238"/>
<path d="M272.641 84.312L273.157 85.364C273.157 85.364 276.502 85.364 278.28 83.0601C278.195 82.7591 278.083 82.4668 277.943 82.187C277.254 82.8879 276.427 83.4386 275.515 83.8043C274.602 84.17 273.624 84.3429 272.641 84.312Z" fill="white"/>
<path d="M273.967 87.7205C277.438 87.2155 278.343 85.6165 278.417 84.333C274.987 85.2378 274.156 86.9525 273.967 87.7205Z" fill="#DE5753"/>
<path d="M275.461 63.8822C274.821 65.0689 273.911 66.0878 272.803 66.8556C271.695 67.6235 270.421 68.1186 269.085 68.3006C264.309 69.1316 266.014 81.5978 266.014 81.5978C266.014 81.5978 255.693 56.434 278.164 58.2224L275.461 63.8822Z" fill="#263238"/>
<path d="M278.732 58.7063C278.358 58.621 277.971 58.6147 277.595 58.6877C277.218 58.7607 276.861 58.9114 276.546 59.1302C276.231 59.349 275.966 59.6311 275.766 59.9584C275.566 60.2858 275.437 60.6512 275.387 61.0313C275.124 63.1353 275.566 65.7652 278.964 66.8593C284.971 68.7845 284.413 75.1386 284.413 75.1386L285.465 70.4256C285.465 70.4256 285.802 77.1584 289.189 76.3589C292.577 75.5594 292.913 69.2053 292.913 69.2053L287.317 60.642L278.732 58.7063Z" fill="#263238"/>
<path d="M274.924 100.776C275.001 100.744 275.085 100.735 275.168 100.748C275.25 100.762 275.327 100.798 275.39 100.852C275.453 100.907 275.5 100.977 275.525 101.057C275.551 101.136 275.554 101.221 275.534 101.302C275.134 103.038 274.787 106.804 279.363 106.804C283.94 106.804 288.053 103.069 289.81 101.27C290.077 100.996 290.419 100.807 290.794 100.727C291.168 100.646 291.557 100.678 291.914 100.818L293.113 101.291C293.24 101.342 293.353 101.419 293.447 101.518C293.54 101.617 293.611 101.736 293.654 101.865C293.697 101.994 293.712 102.131 293.696 102.266C293.681 102.402 293.636 102.532 293.565 102.648C291.535 106.015 284.255 116.745 278.375 108.045C278.375 108.045 274.956 113.305 272.852 108.603C272.078 106.826 271.911 104.844 272.378 102.964C272.477 102.548 272.677 102.163 272.959 101.842C273.242 101.521 273.598 101.274 273.998 101.123L274.924 100.776Z" fill="#4542F7"/>
<path opacity="0.6" d="M274.924 100.776C275.001 100.744 275.085 100.735 275.168 100.748C275.25 100.762 275.327 100.798 275.39 100.852C275.453 100.907 275.5 100.977 275.525 101.057C275.551 101.136 275.554 101.221 275.534 101.302C275.134 103.038 274.787 106.804 279.363 106.804C283.94 106.804 288.053 103.069 289.81 101.27C290.077 100.996 290.419 100.807 290.794 100.727C291.168 100.646 291.557 100.678 291.914 100.818L293.113 101.291C293.24 101.342 293.353 101.419 293.447 101.518C293.54 101.617 293.611 101.736 293.654 101.865C293.697 101.994 293.712 102.131 293.696 102.266C293.681 102.402 293.636 102.532 293.565 102.648C291.535 106.015 284.255 116.745 278.375 108.045C278.375 108.045 274.956 113.305 272.852 108.603C272.078 106.826 271.911 104.844 272.378 102.964C272.477 102.548 272.677 102.163 272.959 101.842C273.242 101.521 273.598 101.274 273.998 101.123L274.924 100.776Z" fill="white"/>
<path d="M254.336 107.14C254.478 107.031 254.641 106.952 254.814 106.909C254.988 106.865 255.169 106.857 255.345 106.887C255.522 106.916 255.69 106.981 255.841 107.078C255.991 107.175 256.12 107.302 256.219 107.451C256.318 107.6 256.385 107.768 256.417 107.944C256.448 108.12 256.443 108.301 256.402 108.475C256.36 108.649 256.284 108.813 256.176 108.956C256.069 109.1 255.933 109.219 255.778 109.308L236.747 121.932C236.605 122.025 236.445 122.09 236.278 122.123C236.11 122.155 235.938 122.154 235.771 122.12C235.434 122.051 235.138 121.851 234.948 121.563C234.758 121.276 234.69 120.925 234.76 120.588C234.829 120.25 235.029 119.954 235.316 119.764L254.336 107.14Z" fill="#263238"/>
<path opacity="0.6" d="M254.336 107.14C254.478 107.031 254.641 106.952 254.814 106.909C254.988 106.865 255.169 106.857 255.345 106.887C255.522 106.916 255.69 106.981 255.841 107.078C255.991 107.175 256.12 107.302 256.219 107.451C256.318 107.6 256.385 107.768 256.417 107.944C256.448 108.12 256.443 108.301 256.402 108.475C256.36 108.649 256.284 108.813 256.176 108.956C256.069 109.1 255.933 109.219 255.778 109.308L236.747 121.932C236.605 122.025 236.445 122.09 236.278 122.123C236.11 122.155 235.938 122.154 235.771 122.12C235.434 122.051 235.138 121.851 234.948 121.563C234.758 121.276 234.69 120.925 234.76 120.588C234.829 120.25 235.029 119.954 235.316 119.764L254.336 107.14Z" fill="white"/>
<path d="M235.316 119.733C234.713 120.358 234.203 121.067 233.801 121.837C233.763 121.903 233.745 121.979 233.748 122.055C233.75 122.132 233.774 122.206 233.817 122.269C233.86 122.333 233.919 122.383 233.989 122.414C234.059 122.446 234.136 122.457 234.212 122.447C235.079 122.383 235.933 122.195 236.747 121.889C236.889 121.796 237.012 121.674 237.107 121.533C237.203 121.392 237.269 121.233 237.304 121.066C237.338 120.899 237.339 120.727 237.306 120.56C237.274 120.392 237.209 120.233 237.115 120.091C237.021 119.948 236.9 119.826 236.759 119.73C236.618 119.635 236.459 119.568 236.292 119.534C236.125 119.5 235.953 119.499 235.785 119.531C235.618 119.563 235.459 119.628 235.316 119.722V119.733Z" fill="#263238"/>
<path opacity="0.8" d="M235.316 119.733C234.713 120.358 234.203 121.067 233.801 121.837C233.763 121.903 233.745 121.979 233.748 122.055C233.75 122.132 233.774 122.206 233.817 122.269C233.86 122.333 233.919 122.383 233.989 122.414C234.059 122.446 234.136 122.457 234.212 122.447C235.079 122.383 235.933 122.195 236.747 121.889C236.889 121.796 237.012 121.674 237.107 121.533C237.203 121.392 237.269 121.233 237.304 121.066C237.338 120.899 237.339 120.727 237.306 120.56C237.274 120.392 237.209 120.233 237.115 120.091C237.021 119.948 236.9 119.826 236.759 119.73C236.618 119.635 236.459 119.568 236.292 119.534C236.125 119.5 235.953 119.499 235.785 119.531C235.618 119.563 235.459 119.628 235.316 119.722V119.733Z" fill="white"/>
<path d="M261.595 128.138L253.295 122.321L251.38 114.357C251.203 113.588 250.813 112.884 250.255 112.326C249.697 111.768 248.993 111.378 248.224 111.201V111.201C247.227 110.975 246.182 111.119 245.284 111.607C244.386 112.095 243.696 112.893 243.343 113.852L242.701 115.577C242.529 116.046 242.44 116.541 242.438 117.04V118.502C242.439 119.554 242.833 120.567 243.543 121.342L244.679 122.584C244.984 122.914 245.339 123.195 245.731 123.415L250.654 126.161L258.429 133.924L261.595 128.138Z" fill="#EBB376"/>
<path d="M304.043 104.552C304.23 104.026 304.551 103.558 304.974 103.193C305.398 102.829 305.909 102.581 306.457 102.475C307.005 102.369 307.572 102.408 308.1 102.587C308.629 102.767 309.102 103.082 309.472 103.5C311.229 105.668 312.238 109.813 309.24 117.987C303.254 134.24 293.723 147.001 281.783 147.001C267.623 147.001 253.295 130.611 253.295 130.611L258.26 124.761C258.26 124.761 272.641 134.513 282.235 134.513C287.716 134.556 296.616 123.909 304.043 104.552Z" fill="#4542F7"/>
<path opacity="0.2" d="M304.043 104.552C304.23 104.026 304.551 103.558 304.974 103.193C305.398 102.829 305.909 102.581 306.457 102.475C307.005 102.369 307.572 102.408 308.1 102.587C308.629 102.767 309.102 103.082 309.472 103.5C311.229 105.668 312.238 109.813 309.24 117.987C303.254 134.24 293.723 147.001 281.783 147.001C267.623 147.001 253.295 130.611 253.295 130.611L258.26 124.761C258.26 124.761 272.641 134.513 282.235 134.513C287.716 134.556 296.616 123.909 304.043 104.552Z" fill="white"/>
<path d="M252.053 130.011L257.65 123.257C257.745 123.144 257.879 123.07 258.026 123.053C258.172 123.035 258.32 123.074 258.439 123.162L260.838 124.909C260.902 124.955 260.957 125.015 260.997 125.083C261.038 125.151 261.064 125.228 261.074 125.307C261.084 125.386 261.077 125.466 261.055 125.542C261.032 125.618 260.994 125.689 260.943 125.75L254.631 133.335C254.573 133.406 254.499 133.463 254.416 133.5C254.332 133.537 254.241 133.553 254.149 133.548C254.058 133.543 253.969 133.516 253.89 133.47C253.811 133.424 253.744 133.36 253.695 133.283L251.99 130.705C251.926 130.598 251.897 130.473 251.908 130.348C251.92 130.223 251.97 130.105 252.053 130.011V130.011Z" fill="#4542F7"/>
<path opacity="0.6" d="M252.053 130.011L257.65 123.257C257.745 123.144 257.879 123.07 258.026 123.053C258.172 123.035 258.32 123.074 258.439 123.162L260.838 124.909C260.902 124.955 260.957 125.015 260.997 125.083C261.038 125.151 261.064 125.228 261.074 125.307C261.084 125.386 261.077 125.466 261.055 125.542C261.032 125.618 260.994 125.689 260.943 125.75L254.631 133.335C254.573 133.406 254.499 133.463 254.416 133.5C254.332 133.537 254.241 133.553 254.149 133.548C254.058 133.543 253.969 133.516 253.89 133.47C253.811 133.424 253.744 133.36 253.695 133.283L251.99 130.705C251.926 130.598 251.897 130.473 251.908 130.348C251.92 130.223 251.97 130.105 252.053 130.011V130.011Z" fill="white"/>
<path d="M277.891 58.1383H275.923V58.2119C279.543 58.5914 282.894 60.2978 285.33 63.0019C287.766 65.7059 289.114 69.2162 289.115 72.8557H292.608C292.605 68.9533 291.054 65.2114 288.294 62.452C285.535 59.6925 281.793 58.141 277.891 58.1383V58.1383Z" fill="#263238"/>
<path opacity="0.6" d="M277.891 58.1383H275.923V58.2119C279.543 58.5914 282.894 60.2978 285.33 63.0019C287.766 65.7059 289.114 69.2162 289.115 72.8557H292.608C292.605 68.9533 291.054 65.2114 288.294 62.452C285.535 59.6925 281.793 58.141 277.891 58.1383V58.1383Z" fill="white"/>
<path d="M290.914 84.3436C293.552 84.3436 295.69 81.4846 295.69 77.9579C295.69 74.4312 293.552 71.5723 290.914 71.5723C288.276 71.5723 286.138 74.4312 286.138 77.9579C286.138 81.4846 288.276 84.3436 290.914 84.3436Z" fill="#4542F7"/>
<path d="M296.238 77.9579C296.238 80.8089 295.375 82.1659 293.082 82.1659C290.788 82.1659 289.926 80.8299 289.926 77.9579C289.926 75.086 290.799 73.7499 293.082 73.7499C295.364 73.7499 296.238 75.0965 296.238 77.9579Z" fill="#263238"/>
<path opacity="0.5" d="M296.238 77.9579C296.238 80.8089 295.375 82.1659 293.082 82.1659C290.788 82.1659 289.926 80.8299 289.926 77.9579C289.926 75.086 290.799 73.7499 293.082 73.7499C295.364 73.7499 296.238 75.0965 296.238 77.9579Z" fill="white"/>
<path d="M293.776 81.7557C295.344 81.7557 296.616 80.0554 296.616 77.9579C296.616 75.8605 295.344 74.1602 293.776 74.1602C292.207 74.1602 290.935 75.8605 290.935 77.9579C290.935 80.0554 292.207 81.7557 293.776 81.7557Z" fill="#263238"/>
<path opacity="0.7" d="M293.776 81.7557C295.344 81.7557 296.616 80.0554 296.616 77.9579C296.616 75.8605 295.344 74.1602 293.776 74.1602C292.207 74.1602 290.935 75.8605 290.935 77.9579C290.935 80.0554 292.207 81.7557 293.776 81.7557Z" fill="white"/>
<path d="M98.9243 299.814H93.8852L91.676 167.999H101.133L98.9243 299.814Z" fill="#263238"/>
<path opacity="0.7" d="M98.9243 299.814H93.8852L91.676 167.999H101.133L98.9243 299.814Z" fill="white"/>
<path d="M154.586 299.814H149.536L147.327 167.999H156.795L154.586 299.814Z" fill="#263238"/>
<path opacity="0.7" d="M154.586 299.814H149.536L147.327 167.999H156.795L154.586 299.814Z" fill="white"/>
<path d="M191.542 165.789H96.3994V176.099H191.542V165.789Z" fill="#263238"/>
<path opacity="0.5" d="M191.542 165.789H96.3994V176.099H191.542V165.789Z" fill="white"/>
<path d="M247.351 165.789H191.553V176.099H247.351V165.789Z" fill="#263238"/>
<path opacity="0.5" d="M247.351 165.789H191.553V176.099H247.351V165.789Z" fill="white"/>
<path d="M249.729 299.814H244.679L242.47 167.999H251.927L249.729 299.814Z" fill="#263238"/>
<path opacity="0.7" d="M249.729 299.814H244.679L242.47 167.999H251.927L249.729 299.814Z" fill="white"/>
<path d="M254.915 159.162H180.623C179.083 159.162 177.835 160.41 177.835 161.95V165.211C177.835 166.75 179.083 167.999 180.623 167.999H254.915C256.454 167.999 257.703 166.75 257.703 165.211V161.95C257.703 160.41 256.454 159.162 254.915 159.162Z" fill="#263238"/>
<path d="M187.482 159.162H86.6264C85.0868 159.162 83.8386 160.41 83.8386 161.95V165.211C83.8386 166.75 85.0868 167.999 86.6264 167.999H187.482C189.021 167.999 190.269 166.75 190.269 165.211V161.95C190.269 160.41 189.021 159.162 187.482 159.162Z" fill="#263238"/>
<path opacity="0.2" d="M187.482 159.162H86.6264C85.0868 159.162 83.8386 160.41 83.8386 161.95V165.211C83.8386 166.75 85.0868 167.999 86.6264 167.999H187.482C189.021 167.999 190.269 166.75 190.269 165.211V161.95C190.269 160.41 189.021 159.162 187.482 159.162Z" fill="white"/>
<path d="M194.067 299.814H189.028L186.819 167.999H196.276L194.067 299.814Z" fill="#263238"/>
<path opacity="0.7" d="M194.067 299.814H189.028L186.819 167.999H196.276L194.067 299.814Z" fill="white"/>
<path d="M191.416 159.172C191.026 159.172 190.651 159.017 190.375 158.741C190.099 158.465 189.943 158.09 189.943 157.7C189.943 157.309 190.099 156.934 190.375 156.658C190.651 156.382 191.026 156.227 191.416 156.227H231.55C231.941 156.227 232.315 156.382 232.591 156.658C232.868 156.934 233.023 157.309 233.023 157.7C233.023 158.09 232.868 158.465 232.591 158.741C232.315 159.017 231.941 159.172 231.55 159.172H191.416Z" fill="#4542F7"/>
<path d="M194.867 156.626L189.523 118.607C189.41 117.915 189.059 117.284 188.531 116.823C188.003 116.362 187.33 116.1 186.63 116.082H181.517V159.162H192.689C193.012 159.18 193.334 159.124 193.632 158.997C193.929 158.871 194.194 158.677 194.404 158.432C194.615 158.187 194.766 157.896 194.846 157.583C194.927 157.27 194.934 156.943 194.867 156.626Z" fill="#4542F7"/>
<path d="M190.48 159.162H145.128C144.427 159.143 143.755 158.879 143.228 158.416C142.701 157.953 142.354 157.32 142.246 156.626L136.902 118.607C136.837 118.292 136.845 117.965 136.926 117.654C137.007 117.342 137.159 117.053 137.369 116.809C137.58 116.565 137.843 116.373 138.14 116.247C138.436 116.121 138.758 116.065 139.079 116.082H184.452C185.152 116.102 185.824 116.365 186.352 116.826C186.879 117.286 187.231 117.916 187.345 118.607L192.689 156.626C192.757 156.946 192.749 157.276 192.668 157.592C192.586 157.907 192.431 158.2 192.217 158.445C192.003 158.691 191.735 158.884 191.433 159.008C191.132 159.133 190.805 159.185 190.48 159.162V159.162Z" fill="#4542F7"/>
<path opacity="0.7" d="M190.48 159.162H145.128C144.427 159.143 143.755 158.879 143.228 158.416C142.701 157.953 142.354 157.32 142.246 156.626L136.902 118.607C136.837 118.292 136.845 117.965 136.926 117.654C137.007 117.342 137.159 117.053 137.369 116.809C137.58 116.565 137.843 116.373 138.14 116.247C138.436 116.121 138.758 116.065 139.079 116.082H184.452C185.152 116.102 185.824 116.365 186.352 116.826C186.879 117.286 187.231 117.916 187.345 118.607L192.689 156.626C192.757 156.946 192.749 157.276 192.668 157.592C192.586 157.907 192.431 158.2 192.217 158.445C192.003 158.691 191.735 158.884 191.433 159.008C191.132 159.133 190.805 159.185 190.48 159.162V159.162Z" fill="white"/>
<path opacity="0.7" d="M166.978 136.586C167.03 136.873 167.017 137.169 166.94 137.451C166.863 137.733 166.725 137.994 166.534 138.216C166.344 138.437 166.106 138.614 165.839 138.732C165.572 138.851 165.282 138.908 164.99 138.9C164.35 138.88 163.737 138.638 163.255 138.216C162.774 137.794 162.454 137.218 162.349 136.586C162.298 136.298 162.311 136.003 162.388 135.721C162.464 135.439 162.603 135.178 162.793 134.956C162.984 134.734 163.221 134.558 163.488 134.44C163.755 134.321 164.046 134.264 164.338 134.271C164.979 134.288 165.594 134.529 166.076 134.951C166.559 135.374 166.878 135.952 166.978 136.586V136.586Z" fill="white"/>
<path d="M128.033 137.27H110.507C110.228 137.27 109.953 137.331 109.701 137.449C109.449 137.567 109.226 137.739 109.047 137.953C108.869 138.166 108.739 138.417 108.668 138.686C108.596 138.955 108.585 139.236 108.634 139.51V139.668C107.76 139.451 106.842 139.48 105.983 139.752C102.827 140.699 102.732 143.519 103.679 146.685C104.626 149.852 106.246 152.155 109.413 151.209C109.922 151.053 110.407 150.826 110.854 150.535C111.482 152.017 112.5 153.301 113.799 154.249V156.563H124.677V154.249C126.509 152.922 127.76 150.94 128.17 148.715L129.874 139.51C129.923 139.239 129.912 138.96 129.843 138.693C129.773 138.426 129.646 138.178 129.471 137.965C129.296 137.752 129.077 137.579 128.829 137.459C128.58 137.339 128.309 137.274 128.033 137.27V137.27ZM109.002 149.199C106.898 149.82 105.846 148.305 105.236 146.222C104.626 144.139 104.679 142.298 106.751 141.678C107.514 141.425 108.347 141.486 109.065 141.846L110.296 148.495C109.922 148.821 109.48 149.062 109.002 149.199Z" fill="#4542F7"/>
<path opacity="0.5" d="M128.033 137.27H110.507C110.228 137.27 109.953 137.331 109.701 137.449C109.449 137.567 109.226 137.739 109.047 137.953C108.869 138.166 108.739 138.417 108.668 138.686C108.596 138.955 108.585 139.236 108.634 139.51V139.668C107.76 139.451 106.842 139.48 105.983 139.752C102.827 140.699 102.732 143.519 103.679 146.685C104.626 149.852 106.246 152.155 109.413 151.209C109.922 151.053 110.407 150.826 110.854 150.535C111.482 152.017 112.5 153.301 113.799 154.249V156.563H124.677V154.249C126.509 152.922 127.76 150.94 128.17 148.715L129.874 139.51C129.923 139.239 129.912 138.96 129.843 138.693C129.773 138.426 129.646 138.178 129.471 137.965C129.296 137.752 129.077 137.579 128.829 137.459C128.58 137.339 128.309 137.274 128.033 137.27V137.27ZM109.002 149.199C106.898 149.82 105.846 148.305 105.236 146.222C104.626 144.139 104.679 142.298 106.751 141.678C107.514 141.425 108.347 141.486 109.065 141.846L110.296 148.495C109.922 148.821 109.48 149.062 109.002 149.199Z" fill="white"/>
<path d="M125.14 159.288H113.368C112.634 159.29 111.911 159.109 111.264 158.762L107.267 156.574C107.112 156.486 106.99 156.35 106.92 156.186C106.851 156.022 106.837 155.84 106.881 155.667C106.926 155.495 107.025 155.342 107.165 155.232C107.305 155.122 107.478 155.061 107.656 155.059H130.8C130.978 155.061 131.15 155.122 131.29 155.232C131.43 155.342 131.53 155.495 131.575 155.667C131.619 155.84 131.605 156.022 131.535 156.186C131.466 156.35 131.344 156.486 131.189 156.574L127.192 158.762C126.56 159.101 125.856 159.282 125.14 159.288V159.288Z" fill="#4542F7"/>
<path opacity="0.4" d="M125.14 159.288H113.368C112.634 159.29 111.911 159.109 111.264 158.762L107.267 156.574C107.112 156.486 106.99 156.35 106.92 156.186C106.851 156.022 106.837 155.84 106.881 155.667C106.926 155.495 107.025 155.342 107.165 155.232C107.305 155.122 107.478 155.061 107.656 155.059H130.8C130.978 155.061 131.15 155.122 131.29 155.232C131.43 155.342 131.53 155.495 131.575 155.667C131.619 155.84 131.605 156.022 131.535 156.186C131.466 156.35 131.344 156.486 131.189 156.574L127.192 158.762C126.56 159.101 125.856 159.282 125.14 159.288V159.288Z" fill="white"/>
<path d="M203.588 11.9028H133.998C130.953 11.9028 128.485 14.3709 128.485 17.4153V72.74C128.485 75.7845 130.953 78.2525 133.998 78.2525H203.588C206.632 78.2525 209.1 75.7845 209.1 72.74V17.4153C209.1 14.3709 206.632 11.9028 203.588 11.9028Z" fill="#4542F7"/>
<path opacity="0.6" d="M203.588 11.9028H133.998C130.953 11.9028 128.485 14.3709 128.485 17.4153V72.74C128.485 75.7845 130.953 78.2525 133.998 78.2525H203.588C206.632 78.2525 209.1 75.7845 209.1 72.74V17.4153C209.1 14.3709 206.632 11.9028 203.588 11.9028Z" fill="white"/>
<path d="M165.989 24.3585C165.989 24.3585 159.993 21.2867 156.942 28.0405C153.891 34.7944 146.18 30.7336 149.42 44.4202C152.66 58.1067 138.816 53.4568 145.475 63.4508C152.134 73.4448 162.307 66.6069 167.883 66.7857C173.458 66.9645 184.231 70.4677 186.819 64.2398C189.407 58.012 184.978 55.9185 184.883 52.5416C184.789 49.1647 190.396 41.0748 185.851 37.4138C177.54 30.681 180.812 20.5819 165.989 24.3585Z" fill="#2E353A"/>
<path d="M167.883 59.1692C175.099 59.1692 180.949 51.6851 180.949 42.4529C180.949 33.2208 175.099 25.7367 167.883 25.7367C160.667 25.7367 154.817 33.2208 154.817 42.4529C154.817 51.6851 160.667 59.1692 167.883 59.1692Z" fill="#B97964"/>
<path d="M168.766 43.2104C169.079 44.7493 169.607 46.2367 170.334 47.6288C169.975 47.8062 169.582 47.9029 169.183 47.912C168.783 47.9211 168.386 47.8424 168.02 47.6814L168.766 43.2104Z" fill="#A24E3F"/>
<path d="M163.012 43.263C163.012 43.8731 163.254 44.3886 163.654 44.4202C164.053 44.4517 164.401 43.9678 164.443 43.3682C164.485 42.7685 164.19 42.253 163.801 42.232C163.412 42.211 163.012 42.6633 163.012 43.263Z" fill="#2E353A"/>
<path d="M160.834 41.1274C160.779 41.1379 160.722 41.1379 160.666 41.1274C160.604 41.058 160.57 40.9681 160.57 40.8749C160.57 40.7818 160.604 40.6919 160.666 40.6224C161.032 40.1873 161.494 39.8444 162.017 39.6214C162.54 39.3984 163.108 39.3017 163.675 39.339C163.769 39.3546 163.853 39.406 163.91 39.4826C163.967 39.5591 163.992 39.6547 163.98 39.7493C163.975 39.796 163.96 39.8413 163.937 39.8822C163.914 39.9232 163.883 39.959 163.845 39.9875C163.808 40.016 163.765 40.0367 163.72 40.0482C163.674 40.0597 163.626 40.0618 163.58 40.0544V40.0544C163.13 40.0295 162.681 40.1119 162.27 40.2949C161.858 40.4778 161.496 40.7559 161.213 41.1064C161.158 41.1439 161.093 41.1657 161.027 41.1694C160.96 41.1731 160.893 41.1586 160.834 41.1274Z" fill="#2E353A"/>
<path d="M173.921 43.263C173.921 43.8731 173.669 44.3886 173.269 44.4202C172.869 44.4517 172.522 43.9678 172.48 43.3682C172.438 42.7685 172.733 42.253 173.132 42.232C173.532 42.211 173.879 42.6633 173.921 43.263Z" fill="#2E353A"/>
<path d="M176.088 41.1274C176.147 41.138 176.208 41.138 176.267 41.1274C176.329 41.058 176.364 40.9681 176.364 40.8749C176.364 40.7818 176.329 40.6919 176.267 40.6224C175.902 40.1866 175.439 39.8432 174.917 39.6202C174.394 39.3972 173.826 39.3008 173.258 39.339C173.166 39.3569 173.083 39.409 173.026 39.4849C172.97 39.5608 172.944 39.6551 172.953 39.7493C172.96 39.7965 172.976 39.8419 173 39.8829C173.024 39.9239 173.056 39.9597 173.094 39.9881C173.133 40.0165 173.176 40.037 173.222 40.0484C173.269 40.0598 173.317 40.0618 173.364 40.0544V40.0544C173.813 40.0312 174.262 40.1144 174.673 40.2972C175.084 40.48 175.447 40.7572 175.731 41.1064C175.782 41.1432 175.843 41.1647 175.906 41.1684C175.97 41.1721 176.033 41.1579 176.088 41.1274Z" fill="#2E353A"/>
<path d="M168.777 52.5416C169.13 52.5395 169.482 52.5078 169.829 52.4469C169.878 52.4367 169.922 52.4083 169.951 52.3674C169.98 52.3264 169.993 52.2759 169.987 52.226V52.226C169.983 52.201 169.974 52.177 169.961 52.1554C169.948 52.1339 169.93 52.1152 169.91 52.1005C169.889 52.0857 169.866 52.0753 169.841 52.0698C169.816 52.0642 169.791 52.0637 169.766 52.0682C168.969 52.2192 168.148 52.1839 167.367 51.9649C166.585 51.7459 165.866 51.3492 165.263 50.8058C165.226 50.7711 165.177 50.7517 165.127 50.7517C165.076 50.7517 165.027 50.7711 164.99 50.8058C164.971 50.8235 164.957 50.8447 164.947 50.8682C164.937 50.8917 164.931 50.917 164.931 50.9426C164.931 50.9681 164.937 50.9934 164.947 51.0169C164.957 51.0404 164.971 51.0617 164.99 51.0793C166.014 52.0411 167.372 52.5657 168.777 52.5416V52.5416Z" fill="#2E353A"/>
<path d="M166.662 70.0995C171.932 70.0282 177.103 68.6587 181.717 66.1124C180.041 65.798 178.34 65.6361 176.635 65.6285C173.885 67.1415 170.779 67.8899 167.641 67.7956C161.981 67.7956 158.93 65.6285 158.93 65.6285C157.675 65.6274 156.421 65.7012 155.175 65.8494C156.826 67.48 160.435 70.0995 166.662 70.0995Z" fill="#6562FA"/>
<path d="M175.152 67.501L177.54 65.9862C176.312 65.8052 175.146 65.3287 174.142 64.5975C171.06 62.2937 172.733 56.413 172.733 56.413H163.885C163.675 59.9372 163.77 63.0511 161.781 64.5134C160.608 65.4182 159.18 65.9332 157.699 65.9862L160.855 67.8693C160.656 68.3111 162.959 69.1422 162.959 69.1422L171.744 69.6366L173.427 68.5846C173.427 68.5846 175.636 68.1638 175.152 67.501Z" fill="#B97964"/>
<path d="M158.93 65.6285C158.93 65.6285 161.981 67.7956 167.641 67.7956C170.779 67.8899 173.885 67.1415 176.635 65.6285C176.635 65.6285 194.172 65.2813 194.172 78.2525H143.497C143.497 78.2525 141.225 65.6285 158.93 65.6285Z" fill="#4542F7"/>
<path d="M154.102 39.2864C154.102 39.2864 154.68 44.9041 156.521 44.7147C158.362 44.5254 157.068 35.8569 160.54 35.2467C164.011 34.6366 165.989 33.8686 166.126 31.691C166.263 29.5133 171.649 31.0387 170.923 28.272C172.774 29.0869 174.253 30.5656 175.068 32.4168C176.572 35.636 176.993 33.9948 178.098 36.2356C179.202 38.4764 180.202 45.0829 181.969 40.2543C183.736 35.4256 179.202 31.3648 179.202 31.3648L175.194 26.6308L171.449 25.7787L168.24 25.116H163.938L161.055 25.7787L156.942 30.1866L154.417 34.5208L154.102 39.2864Z" fill="#2E353A"/>
<path d="M156.311 43.284C157.3 45.1986 157.11 47.3973 155.89 48.1968C154.67 48.9964 152.871 48.0706 151.892 46.156C150.914 44.2413 151.093 42.0426 152.313 41.2431C153.533 40.4436 155.332 41.3694 156.311 43.284Z" fill="#B97964"/>
<path d="M178.729 43.284C177.74 45.1986 177.94 47.3973 179.16 48.1968C180.381 48.9964 182.169 48.0706 183.158 46.156C184.147 44.2413 183.957 42.0426 182.727 41.2431C181.496 40.4436 179.718 41.3694 178.729 43.284Z" fill="#B97964"/>
<path d="M154.438 44.7463C154.174 44.8136 153.947 44.9806 153.804 45.2121C153.661 45.4436 153.613 45.7216 153.67 45.9877L154.207 49.4277C154.222 49.5183 154.273 49.5991 154.348 49.6524C154.423 49.7056 154.516 49.727 154.606 49.7117V49.7117C154.697 49.6963 154.778 49.6455 154.831 49.5706C154.884 49.4956 154.906 49.4026 154.891 49.312L154.512 46.9239H154.733C154.986 46.8432 155.202 46.6746 155.342 46.4486C155.482 46.2225 155.537 45.9538 155.496 45.691C155.456 45.4282 155.322 45.1886 155.121 45.0154C154.919 44.8422 154.662 44.7467 154.396 44.7463H154.438Z" fill="white"/>
<path d="M181.233 44.7463C181.496 44.8136 181.724 44.9806 181.867 45.2121C182.01 45.4436 182.058 45.7216 182.001 45.9877L181.453 49.4277C181.438 49.5183 181.387 49.5991 181.312 49.6524C181.237 49.7056 181.144 49.727 181.054 49.7117V49.7117C180.962 49.6962 180.881 49.6459 180.826 49.5713C180.771 49.4967 180.747 49.4038 180.759 49.312L181.138 46.9239H180.896C180.642 46.843 180.425 46.6735 180.285 46.4464C180.145 46.2192 180.091 45.9493 180.133 45.6858C180.175 45.4223 180.31 45.1826 180.514 45.0102C180.718 44.8378 180.976 44.7442 181.243 44.7463H181.233Z" fill="white"/>
<path d="M208.027 21.3708C213.262 21.3708 217.506 17.1272 217.506 11.8923C217.506 6.65749 213.262 2.41381 208.027 2.41381C202.792 2.41381 198.549 6.65749 198.549 11.8923C198.549 17.1272 202.792 21.3708 208.027 21.3708Z" fill="#4542F7"/>
<path d="M202.567 17.3522C202.419 17.2043 202.336 17.0037 202.336 16.7947C202.336 16.5856 202.419 16.385 202.567 16.2371L212.372 6.43244C212.52 6.28469 212.72 6.20171 212.929 6.20171C213.138 6.20171 213.339 6.28469 213.487 6.43244V6.43244C213.635 6.58038 213.718 6.78092 213.718 6.99C213.718 7.19909 213.635 7.39962 213.487 7.54756L203.693 17.3522C203.542 17.4981 203.34 17.5797 203.13 17.5797C202.92 17.5797 202.718 17.4981 202.567 17.3522V17.3522Z" fill="white"/>
<path d="M211.151 17.5416H208.385V15.4376C209.195 15.3517 209.944 14.9686 210.488 14.3624C211.032 13.7562 211.332 12.9699 211.33 12.1553V11.0402C211.33 11.0167 211.326 10.9935 211.317 10.9718C211.308 10.9501 211.295 10.9304 211.278 10.9138C211.261 10.8971 211.242 10.884 211.22 10.875C211.198 10.866 211.175 10.8614 211.151 10.8614H210.71C210.661 10.8613 210.615 10.8798 210.579 10.9131C210.544 10.9463 210.523 10.9918 210.52 11.0402C210.52 11.0646 210.525 11.0887 210.535 11.1112C210.544 11.1336 210.559 11.1538 210.576 11.1705C210.594 11.1873 210.615 11.2002 210.638 11.2086C210.661 11.2169 210.685 11.2205 210.71 11.2191H210.973V12.1553C210.973 12.9366 210.662 13.6858 210.11 14.2382C209.557 14.7906 208.808 15.1009 208.027 15.1009C207.246 15.1009 206.497 14.7906 205.944 14.2382C205.392 13.6858 205.081 12.9366 205.081 12.1553V11.2191H205.355C205.402 11.2191 205.448 11.2002 205.481 11.1667C205.515 11.1331 205.534 11.0876 205.534 11.0402C205.531 10.9936 205.512 10.9496 205.479 10.9166C205.446 10.8836 205.402 10.8639 205.355 10.8614H204.903C204.856 10.8639 204.812 10.8836 204.779 10.9166C204.746 10.9496 204.726 10.9936 204.724 11.0402V12.1553C204.724 12.9692 205.025 13.7543 205.569 14.36C206.112 14.9657 206.86 15.3494 207.669 15.4376V17.5416H204.903C204.807 17.5443 204.716 17.5843 204.649 17.6531C204.582 17.7218 204.545 17.8139 204.545 17.9098V18.2674H211.509V17.9098C211.509 17.8139 211.472 17.7218 211.405 17.6531C211.338 17.5843 211.247 17.5443 211.151 17.5416V17.5416Z" fill="white"/>
<path d="M205.807 12.1974C205.846 12.7611 206.097 13.289 206.51 13.6746C206.923 14.0601 207.467 14.2746 208.032 14.2746C208.597 14.2746 209.141 14.0601 209.554 13.6746C209.967 13.289 210.218 12.7611 210.257 12.1974V7.74745C210.278 7.44239 210.236 7.13629 210.134 6.84813C210.032 6.55998 209.871 6.29594 209.662 6.07243C209.454 5.84891 209.201 5.6707 208.921 5.54885C208.641 5.427 208.338 5.36412 208.032 5.36412C207.726 5.36412 207.424 5.427 207.144 5.54885C206.863 5.6707 206.611 5.84891 206.402 6.07243C206.193 6.29594 206.033 6.55998 205.931 6.84813C205.828 7.13629 205.786 7.44239 205.807 7.74745V12.1974Z" fill="white"/>
<path d="M109.77 37.1824H5.58035C2.53589 37.1824 0.0678711 39.6504 0.0678711 42.6949V120.49C0.0678711 123.535 2.53589 126.003 5.58035 126.003H109.77C112.815 126.003 115.283 123.535 115.283 120.49V42.6949C115.283 39.6504 112.815 37.1824 109.77 37.1824Z" fill="#4542F7"/>
<path d="M50.6796 44.6516C50.6796 44.6516 45.3354 43.021 44.1467 54.4878C42.9579 65.9546 34.7523 69.7734 43.4629 73.9814C52.1734 78.1894 60.5894 73.5816 64.0084 73.9814C67.4274 74.3811 73.6027 72.1404 73.2134 66.4806C72.8242 60.8208 62.7565 44.3886 62.7565 44.3886L50.6796 44.6516Z" fill="#263238"/>
<path d="M94.2429 95.1266C92.3599 101.439 86.9526 118.165 82.8182 117.587C77.7371 116.892 74.2339 98.6508 74.2339 98.6508L75.633 76.5588C75.633 76.5588 81.2402 76.5588 83.7019 104.794L89.6352 92.0232L94.2429 95.1266Z" fill="#263238"/>
<path d="M90.1401 92.2125L92.2441 87.6258L95.5474 84.9222L97.3358 82.997C97.7901 82.5065 98.3884 82.1729 99.0444 82.0444C99.7005 81.9158 100.38 81.9989 100.986 82.2817L102.038 82.7761C102.653 83.0608 103.16 83.5356 103.484 84.1305C103.808 84.7253 103.932 85.4086 103.837 86.0794L103.28 90.077L94.3376 92.97C94.3376 92.97 94.0851 93.8642 93.6538 95.3159L90.1401 92.2125Z" fill="#EEC1BB"/>
<path d="M89.2985 90.603L95.5685 94.8951L95.0845 97.2727L88.1519 92.3493L89.2985 90.603Z" fill="#263238"/>
<path opacity="0.2" d="M89.2985 90.603L95.5685 94.8951L95.0845 97.2727L88.1519 92.3493L89.2985 90.603Z" fill="white"/>
<path d="M41.5273 126.003C41.5273 126.003 40.5699 100.934 33.0271 78.6628C46.9857 75.3959 61.4205 74.6831 75.6331 76.5588C75.6331 76.5588 79.1363 92.5176 74.9283 126.003H41.5273Z" fill="#263238"/>
<path opacity="0.2" d="M41.5273 126.003C41.5273 126.003 40.5699 100.934 33.0271 78.6628C46.9857 75.3959 61.4205 74.6831 75.6331 76.5588C75.6331 76.5588 79.1363 92.5176 74.9283 126.003H41.5273Z" fill="white"/>
<path d="M46.8502 111.99C48.1232 111.506 48.8701 111.201 48.8701 111.201L54.5298 108.571L58.7378 104.574C58.9991 104.323 59.2022 104.018 59.3326 103.68C59.463 103.342 59.5176 102.98 59.4925 102.618C59.4674 102.257 59.3632 101.906 59.1874 101.589C59.0115 101.273 58.7683 100.999 58.4748 100.786L55.8133 98.9138C55.5434 98.7207 55.2375 98.5837 54.9138 98.5108C54.59 98.4379 54.255 98.4307 53.9284 98.4895C53.6018 98.5484 53.2903 98.6721 53.0124 98.8534C52.7344 99.0347 52.4956 99.2698 52.3101 99.545L47.5551 106.625C47.5551 106.625 46.5031 106.93 44.7988 107.351L46.8502 111.99Z" fill="#EEC1BB"/>
<path d="M46.9555 112.642C40.7908 114.967 22.3177 121.332 16.7631 116.324C10.0619 110.275 33.027 78.6628 33.027 78.6628C39.1602 85.5954 36.951 92.7596 36.951 92.7596C36.951 92.7596 25.137 105.226 26.2522 108.298C27.2305 111.043 39.3706 108.298 44.9252 106.919L46.9555 112.642Z" fill="#263238"/>
<path d="M45.6511 106.162L48.2811 112.821L46.1771 114.052L43.4629 106.162H45.6511Z" fill="#263238"/>
<path opacity="0.2" d="M45.6511 106.162L48.2811 112.821L46.1771 114.052L43.4629 106.162H45.6511Z" fill="white"/>
<path d="M61.6731 75.5699H59.7163C59.4176 73.5742 59.6015 71.536 60.2529 69.6261L52.5733 61.7992C52.9625 65.376 53.1308 72.1509 51.4581 75.875C50.4061 75.9486 49.4278 76.0328 48.4705 76.1274C48.9544 77.5371 50.8059 81.1244 57.181 81.1244C63.5561 81.1244 62.3779 77.0953 61.6731 75.5699Z" fill="#EEC1BB"/>
<path opacity="0.1" d="M54.0145 64.6712L53.1309 67.0382C54.5118 69.7294 56.7997 71.8459 59.5901 73.0135C59.6819 71.8629 59.9043 70.7265 60.2529 69.6261L55.1612 64.4292L54.0145 64.6712Z" fill="black"/>
<path d="M48.6598 55.9396C50.5218 63.03 51.153 66.0809 55.5083 69.0475C62.0517 73.529 70.3626 69.6997 70.6676 62.1885C70.9517 55.4241 67.8693 44.9567 60.2739 43.4839C58.6038 43.16 56.8788 43.2669 55.2614 43.7944C53.6441 44.3219 52.1878 45.2528 51.0299 46.4991C49.872 47.7454 49.0507 49.2662 48.6433 50.9179C48.236 52.5696 48.2562 54.2978 48.7019 55.9396H48.6598Z" fill="#EEC1BB"/>
<path d="M48.0812 61.9465C48.4088 62.5694 48.8563 63.1215 49.3979 63.571C49.9395 64.0206 50.5645 64.3587 51.2372 64.566C53.0361 65.113 53.9724 63.514 53.499 61.7887C53.0782 60.2423 51.6369 58.0962 49.8065 58.3066C49.173 58.4028 48.6032 58.7452 48.221 59.2595C47.8388 59.7737 47.6751 60.418 47.7656 61.0523C47.8118 61.368 47.919 61.6717 48.0812 61.9465Z" fill="#EEC1BB"/>
<path d="M65.0078 55.8449C65.7861 57.0774 66.7313 58.1962 67.8167 59.1692C67.5644 59.444 67.2542 59.6593 66.9085 59.7994C66.5628 59.9395 66.1902 60.001 65.8179 59.9793L65.0078 55.8449Z" fill="#D58745"/>
<path d="M58.6854 53.1833C58.6369 53.1942 58.5866 53.1942 58.5381 53.1833C58.4733 53.1421 58.4272 53.0773 58.4095 53.0027C58.3919 52.928 58.404 52.8494 58.4434 52.7836C58.7135 52.3098 59.0933 51.9078 59.5509 51.6113C60.0085 51.3147 60.5307 51.1323 61.0734 51.0793C61.1508 51.0791 61.2254 51.1084 61.282 51.1611C61.3387 51.2139 61.3731 51.2862 61.3785 51.3634C61.3814 51.4398 61.3545 51.5143 61.3034 51.5713C61.2524 51.6282 61.1812 51.663 61.105 51.6684C60.657 51.7163 60.2268 51.8701 59.85 52.1171C59.4732 52.364 59.1605 52.697 58.9378 53.0887C58.909 53.1267 58.87 53.1558 58.8253 53.1725C58.7806 53.1893 58.7321 53.193 58.6854 53.1833V53.1833Z" fill="#2E353A"/>
<path d="M65.6495 50.1536C65.6151 50.1181 65.5898 50.0748 65.5758 50.0273C65.5647 49.9907 65.561 49.9523 65.5651 49.9142C65.5692 49.8762 65.5809 49.8393 65.5996 49.8059C65.6182 49.7725 65.6435 49.7432 65.6737 49.7198C65.704 49.6964 65.7387 49.6793 65.7757 49.6697V49.6697C66.2976 49.5079 66.8505 49.4732 67.3885 49.5683C67.9264 49.6635 68.4339 49.8858 68.8686 50.2167C68.9048 50.239 68.9358 50.2689 68.9593 50.3044C68.9829 50.3398 68.9985 50.38 69.0051 50.422C69.0116 50.4641 69.009 50.507 68.9974 50.548C68.9858 50.5889 68.9654 50.6268 68.9377 50.6592C68.91 50.6915 68.8756 50.7174 68.8369 50.7352C68.7983 50.7529 68.7562 50.7621 68.7136 50.762C68.6711 50.762 68.629 50.7527 68.5904 50.7348C68.5518 50.717 68.5175 50.6909 68.4899 50.6585C68.1284 50.3891 67.7077 50.2103 67.2629 50.1371C66.8181 50.0639 66.3622 50.0984 65.9335 50.2377C65.8829 50.249 65.8303 50.2472 65.7806 50.2325C65.7309 50.2177 65.6858 50.1906 65.6495 50.1536V50.1536Z" fill="#2E353A"/>
<path d="M60.6841 55.6871C60.7999 56.2762 61.1996 56.7391 61.5889 56.6128C61.9781 56.4866 62.1885 56.0027 62.0622 55.4136C61.936 54.8244 61.5468 54.4247 61.1681 54.4983C60.7893 54.572 60.5684 55.098 60.6841 55.6871Z" fill="#2E353A"/>
<path d="M67.2802 54.3931C67.3854 54.9717 67.7957 55.382 68.1744 55.3084C68.5531 55.2347 68.774 54.7087 68.6583 54.1196C68.5426 53.5305 68.1428 53.1202 67.7641 53.1938C67.3854 53.2675 67.175 53.804 67.2802 54.3931Z" fill="#2E353A"/>
<path d="M67.6167 53.257L68.9422 52.5837C68.9422 52.5837 68.4373 53.8145 67.6167 53.257Z" fill="#2E353A"/>
<path d="M60.9683 54.5614L62.2833 53.8882C62.2833 53.8882 61.8204 55.119 60.9683 54.5614Z" fill="#2E353A"/>
<path d="M66.4597 61.8518C64.8244 61.7595 63.1842 61.8088 61.5574 61.9991C61.8667 62.5644 62.35 63.0149 62.9355 63.284C63.521 63.553 64.1776 63.6263 64.808 63.4929C66.649 63.3246 66.4597 61.8518 66.4597 61.8518Z" fill="#2E353A"/>
<path d="M63.8717 62.7986C64.5878 62.6937 65.3189 62.7997 65.9757 63.1037C65.6488 63.3373 65.2618 63.4723 64.8606 63.4929C64.1445 63.5978 63.4134 63.4918 62.7566 63.1879C63.0835 62.9543 63.4705 62.8192 63.8717 62.7986Z" fill="#DE5753"/>
<path d="M66.2912 61.8413C66.2652 61.9677 66.204 62.0841 66.1147 62.1772C66.0253 62.2703 65.9114 62.3362 65.7862 62.3673C64.7358 62.4492 63.6806 62.4492 62.6302 62.3673C62.4643 62.3718 62.2996 62.337 62.1497 62.2657C61.9997 62.1944 61.8688 62.0886 61.7676 61.957C63.2707 61.81 64.7825 61.7713 66.2912 61.8413Z" fill="white"/>
<path d="M50.6796 61.4836C50.6796 61.4836 53.8356 58.8326 53.1307 53.1833C52.4259 47.5341 59.5795 52.8046 61.0102 48.0706C62.4409 43.3366 68.6057 52.9414 71.6354 47.1554C74.6652 41.3694 60.8419 39.9597 59.4638 41.6324C58.0857 43.3051 39.1917 40.5804 50.6796 61.4836Z" fill="#263238"/>
<path d="M105.983 108.424H9.35704C7.97425 108.424 6.85327 109.545 6.85327 110.928V115.683C6.85327 117.065 7.97425 118.186 9.35704 118.186H105.983C107.366 118.186 108.487 117.065 108.487 115.683V110.928C108.487 109.545 107.366 108.424 105.983 108.424Z" fill="white"/>
<path d="M19.5825 115.746V110.875L22.6333 113.316L19.5825 115.746Z" fill="#263238"/>
<path d="M27.5461 114.746L28.8822 113.337L27.5461 111.916V114.746Z" fill="#263238"/>
<path d="M28.8821 111.969V113.337V114.704H29.4817V111.969H28.8821Z" fill="#263238"/>
<path d="M14.659 111.916L13.3335 113.337L14.659 114.746V111.916Z" fill="#263238"/>
<path d="M13.3336 114.704V113.337V111.969H12.7234V114.704H13.3336Z" fill="#263238"/>
<path d="M103.774 112.621H38.792V114.052H103.774V112.621Z" fill="#263238"/>
<path d="M69.5734 110.107H67.259V116.503H69.5734V110.107Z" fill="#4542F7"/>
<path d="M271.156 35.283C274.281 22.0455 266.082 8.78149 252.845 5.65714C239.607 2.53279 226.343 10.7312 223.219 23.9688C220.094 37.2063 228.293 50.4703 241.53 53.5947C254.768 56.719 268.032 48.5206 271.156 35.283Z" fill="#4542F7"/>
<path opacity="0.7" d="M271.156 35.283C274.281 22.0455 266.082 8.78149 252.845 5.65714C239.607 2.53279 226.343 10.7312 223.219 23.9688C220.094 37.2063 228.293 50.4703 241.53 53.5947C254.768 56.719 268.032 48.5206 271.156 35.283Z" fill="white"/>
<g opacity="0.8">
<path d="M242.228 38.003C243.561 36.7086 245.345 35.9847 247.203 35.9847C249.062 35.9847 250.846 36.7086 252.179 38.003C253.516 39.2338 255.535 37.235 254.189 35.9936C252.313 34.186 249.809 33.1761 247.203 33.1761C244.598 33.1761 242.094 34.186 240.218 35.9936C238.872 37.235 240.881 39.2338 242.228 38.003V38.003Z" fill="#4542F7"/>
<path d="M246.236 42.0111C246.492 41.7573 246.838 41.615 247.198 41.615C247.559 41.615 247.905 41.7573 248.161 42.0111C249.507 43.2524 251.517 41.2431 250.17 40.0018C249.372 39.2323 248.307 38.8024 247.198 38.8024C246.09 38.8024 245.024 39.2323 244.226 40.0018C242.88 41.2431 244.9 43.2524 246.236 42.0111V42.0111Z" fill="#4542F7"/>
<path d="M236.947 32.7219C239.694 30.058 243.371 28.5682 247.198 28.5682C251.026 28.5682 254.702 30.058 257.45 32.7219C258.797 33.9528 260.806 31.954 259.459 30.7126C256.167 27.5378 251.772 25.7637 247.198 25.7637C242.625 25.7637 238.23 27.5378 234.937 30.7126C233.591 31.954 235.611 33.9633 236.947 32.7219V32.7219Z" fill="#4542F7"/>
<path d="M232.139 27.9038C236.178 23.991 241.58 21.8031 247.204 21.8031C252.827 21.8031 258.229 23.991 262.268 27.9038C263.604 29.1556 265.614 27.1568 264.278 25.8944C259.698 21.4634 253.576 18.9862 247.204 18.9862C240.831 18.9862 234.709 21.4634 230.13 25.8944C228.794 27.1568 230.803 29.1556 232.139 27.9038V27.9038Z" fill="#4542F7"/>
</g>
<path d="M51.0792 184.494C65.0698 184.494 76.4114 173.152 76.4114 159.162C76.4114 145.171 65.0698 133.83 51.0792 133.83C37.0887 133.83 25.7471 145.171 25.7471 159.162C25.7471 173.152 37.0887 184.494 51.0792 184.494Z" fill="#4542F7"/>
<path opacity="0.7" d="M51.0792 184.494C65.0698 184.494 76.4114 173.152 76.4114 159.162C76.4114 145.171 65.0698 133.83 51.0792 133.83C37.0887 133.83 25.7471 145.171 25.7471 159.162C25.7471 173.152 37.0887 184.494 51.0792 184.494Z" fill="white"/>
<path d="M45.5667 151.103V157.636L37.6978 151.882V166.442L45.5667 160.677V167.22H64.4501V151.103H45.5667Z" fill="#4542F7"/>
<path d="M350.82 65.0783C353.601 53.294 346.303 41.4862 334.518 38.7048C322.734 35.9235 310.926 43.2218 308.145 55.0061C305.364 66.7905 312.662 78.5983 324.446 81.3797C336.231 84.161 348.038 76.8627 350.82 65.0783Z" fill="#4542F7"/>
<path opacity="0.7" d="M350.82 65.0783C353.601 53.294 346.303 41.4862 334.518 38.7048C322.734 35.9235 310.926 43.2218 308.145 55.0061C305.364 66.7905 312.662 78.5983 324.446 81.3797C336.231 84.161 348.038 76.8627 350.82 65.0783Z" fill="white"/>
<path d="M335.877 71.5618H330.28V67.3538C331.931 67.1678 333.455 66.3809 334.563 65.1431C335.671 63.9053 336.285 62.3031 336.287 60.642V58.3697C336.284 58.2739 336.244 58.1829 336.176 58.1161C336.107 58.0493 336.015 58.012 335.919 58.012H335.004C334.951 58.003 334.897 58.0056 334.845 58.0197C334.793 58.0338 334.745 58.059 334.704 58.0935C334.663 58.1281 334.63 58.1712 334.608 58.2198C334.585 58.2684 334.573 58.3213 334.573 58.3749C334.573 58.4285 334.585 58.4815 334.608 58.5301C334.63 58.5787 334.663 58.6218 334.704 58.6564C334.745 58.6909 334.793 58.7161 334.845 58.7302C334.897 58.7443 334.951 58.7469 335.004 58.7379H335.54V60.642C335.54 62.2351 334.907 63.763 333.781 64.8895C332.654 66.0161 331.126 66.6489 329.533 66.6489C327.94 66.6489 326.412 66.0161 325.286 64.8895C324.159 63.763 323.526 62.2351 323.526 60.642V58.7379H324.073C324.126 58.7469 324.18 58.7443 324.232 58.7302C324.284 58.7161 324.332 58.6909 324.373 58.6564C324.414 58.6218 324.447 58.5787 324.469 58.5301C324.492 58.4815 324.504 58.4285 324.504 58.3749C324.504 58.3213 324.492 58.2684 324.469 58.2198C324.447 58.1712 324.414 58.1281 324.373 58.0935C324.332 58.059 324.284 58.0338 324.232 58.0197C324.18 58.0056 324.126 58.003 324.073 58.012H323.158C323.11 58.0106 323.063 58.0188 323.018 58.0362C322.973 58.0535 322.933 58.0796 322.898 58.113C322.864 58.1463 322.837 58.1862 322.818 58.2303C322.799 58.2744 322.79 58.3218 322.79 58.3697V60.642C322.79 62.3038 323.403 63.9072 324.511 65.1455C325.619 66.3838 327.145 67.17 328.797 67.3538V71.5618H323.127C322.931 71.5618 322.744 71.6394 322.606 71.7775C322.468 71.9156 322.39 72.1029 322.39 72.2982V73.0346H336.592V72.2982C336.592 72.1064 336.518 71.9223 336.384 71.7847C336.25 71.6472 336.068 71.5672 335.877 71.5618Z" fill="#4542F7"/>
<path d="M329.502 65.2498C330.707 65.2498 331.863 64.771 332.715 63.9187C333.568 63.0664 334.046 61.9104 334.046 60.7051H324.957C324.956 61.3023 325.072 61.8939 325.3 62.4459C325.528 62.9979 325.863 63.4995 326.285 63.9218C326.707 64.3441 327.209 64.6788 327.761 64.9067C328.313 65.1346 328.904 65.2512 329.502 65.2498V65.2498Z" fill="#4542F7"/>
<path d="M334.046 51.5738C334.046 50.3685 333.567 49.2125 332.715 48.3602C331.863 47.5079 330.707 47.0291 329.502 47.0291C328.296 47.0291 327.14 47.5079 326.288 48.3602C325.436 49.2125 324.957 50.3685 324.957 51.5738V59.8425H334.046V51.5738Z" fill="#4542F7"/>
</svg>
