<svg width="500" height="500" viewBox="0 0 500 500" fill="none" xmlns="http://www.w3.org/2000/svg">
<path d="M500 382.4H0V382.65H500V382.4Z" fill="#EBEBEB"/>
<path d="M449.9 398.49H435V398.74H449.9V398.49Z" fill="#EBEBEB"/>
<path d="M331.22 401.21H322.53V401.46H331.22V401.21Z" fill="#EBEBEB"/>
<path d="M430.78 389.21H396.59V389.46H430.78V389.21Z" fill="#EBEBEB"/>
<path d="M109.63 394.37H66.4399V394.62H109.63V394.37Z" fill="#EBEBEB"/>
<path d="M134.11 394.37H118.53V394.62H134.11V394.37Z" fill="#EBEBEB"/>
<path d="M254.76 391.01H161.08V391.26H254.76V391.01Z" fill="#EBEBEB"/>
<path d="M237 337.8H43.91C42.3973 337.797 40.9475 337.195 39.8788 336.124C38.8102 335.054 38.21 333.603 38.21 332.09V60.66C38.2231 59.156 38.8292 57.718 39.8964 56.6582C40.9637 55.5985 42.4059 55.0026 43.91 55H237C238.514 55 239.967 55.6016 241.038 56.6724C242.108 57.7433 242.71 59.1956 242.71 60.71V332.09C242.71 333.604 242.108 335.057 241.038 336.128C239.967 337.198 238.514 337.8 237 337.8V337.8ZM43.91 55.2C42.4636 55.2026 41.0774 55.7791 40.0556 56.8027C39.0338 57.8264 38.46 59.2136 38.46 60.66V332.09C38.46 333.536 39.0338 334.924 40.0556 335.947C41.0774 336.971 42.4636 337.547 43.91 337.55H237C238.447 337.547 239.834 336.971 240.858 335.948C241.881 334.924 242.457 333.537 242.46 332.09V60.66C242.457 59.2127 241.881 57.8255 240.858 56.8021C239.834 55.7787 238.447 55.2026 237 55.2H43.91Z" fill="#EBEBEB"/>
<path d="M453.31 337.8H260.21C258.696 337.797 257.246 337.195 256.175 336.125C255.105 335.054 254.503 333.604 254.5 332.09V60.66C254.516 59.1551 255.124 57.7171 256.193 56.6576C257.262 55.5981 258.705 55.0025 260.21 55H453.31C454.812 55.0052 456.252 55.6022 457.317 56.6617C458.382 57.7212 458.987 59.1578 459 60.66V332.09C459 333.601 458.401 335.05 457.335 336.121C456.268 337.191 454.821 337.795 453.31 337.8V337.8ZM260.21 55.2C258.763 55.2026 257.375 55.7787 256.352 56.8021C255.329 57.8255 254.753 59.2127 254.75 60.66V332.09C254.753 333.537 255.329 334.924 256.352 335.948C257.375 336.971 258.763 337.547 260.21 337.55H453.31C454.757 337.547 456.145 336.971 457.168 335.948C458.191 334.924 458.767 333.537 458.77 332.09V60.66C458.767 59.2127 458.191 57.8255 457.168 56.8021C456.145 55.7787 454.757 55.2026 453.31 55.2H260.21Z" fill="#EBEBEB"/>
<path d="M169.24 116H74.5699V382.4H169.24V116Z" fill="#E0E0E0"/>
<path d="M169.23 382.4L420.24 382.4L420.24 116L169.23 116L169.23 382.4Z" fill="#F5F5F5"/>
<path d="M179.24 149.33H64.5699V156H179.24V149.33Z" fill="#EBEBEB"/>
<path d="M179.23 156L430.24 156V149.33L179.23 149.33V156Z" fill="#E0E0E0"/>
<path d="M179.24 189.33H64.5699V196H179.24V189.33Z" fill="#EBEBEB"/>
<path d="M179.23 196L430.24 196V189.33L179.23 189.33V196Z" fill="#E0E0E0"/>
<path d="M179.24 229.33H64.5699V236H179.24V229.33Z" fill="#EBEBEB"/>
<path d="M179.23 236L430.24 236V229.33L179.23 229.33V236Z" fill="#E0E0E0"/>
<path d="M179.24 269.33H64.5699V276H179.24V269.33Z" fill="#EBEBEB"/>
<path d="M179.23 276L430.24 276V269.33L179.23 269.33V276Z" fill="#E0E0E0"/>
<path d="M179.24 309.33H64.5699V316H179.24V309.33Z" fill="#EBEBEB"/>
<path d="M179.23 316L430.24 316V309.33L179.23 309.33V316Z" fill="#E0E0E0"/>
<path d="M179.24 349.33H64.5699V356H179.24V349.33Z" fill="#EBEBEB"/>
<path d="M179.23 356L430.24 356V349.33L179.23 349.33V356Z" fill="#E0E0E0"/>
<path d="M245.13 35H101.13V106H245.13V35Z" fill="#F5F5F5"/>
<path d="M179.23 106H167.01V116H179.23V106Z" fill="#E0E0E0"/>
<path d="M245.13 98.28H101.13V106H245.13V98.28Z" fill="#F0F0F0"/>
<path d="M245.13 35H101.13V42.72H245.13V35Z" fill="#F0F0F0"/>
<path d="M376.13 64.6H304.74V109.66H376.13V64.6Z" fill="#F5F5F5"/>
<path d="M344.31 109.65H336.55V116H344.31V109.65Z" fill="#E0E0E0"/>
<path d="M376.13 104.76H304.74V109.66H376.13V104.76Z" fill="#F0F0F0"/>
<path d="M376.13 64.6H304.74V69.5H376.13V64.6Z" fill="#F0F0F0"/>
<path d="M381.88 124.08H356.63V149.33H381.88V124.08Z" fill="#E6E6E6"/>
<path d="M381.87 149.34H406.29V124.09H381.87V149.34Z" fill="white"/>
<path d="M351.88 124.08H326.63V149.33H351.88V124.08Z" fill="#E6E6E6"/>
<path d="M351.87 149.34H376.29V124.09H351.87V149.34Z" fill="white"/>
<path d="M321.88 124.08H296.63V149.33H321.88V124.08Z" fill="#E6E6E6"/>
<path d="M321.87 149.34H346.29V124.09H321.87V149.34Z" fill="white"/>
<path d="M291.88 124.08H266.63V149.33H291.88V124.08Z" fill="#E6E6E6"/>
<path d="M291.87 149.34H316.29V124.09H291.87V149.34Z" fill="white"/>
<path d="M92.51 189.34H103.09V162.78H92.51V189.34Z" fill="#F0F0F0"/>
<path d="M92.52 162.77H82.29V189.33H92.52V162.77Z" fill="white"/>
<path d="M105.08 189.34H115.66V162.78H105.08V189.34Z" fill="#F0F0F0"/>
<path d="M105.08 162.77H94.85V189.33H105.08V162.77Z" fill="white"/>
<path d="M117.64 189.34H128.22V162.78H117.64V189.34Z" fill="#F0F0F0"/>
<path d="M117.65 162.77H107.42V189.33H117.65V162.77Z" fill="white"/>
<path d="M130.22 189.34H140.8V162.78H130.22V189.34Z" fill="#F0F0F0"/>
<path d="M130.22 162.77H119.99V189.33H130.22V162.77Z" fill="white"/>
<path d="M101.17 309.34H115.41V291.45H101.17V309.34Z" fill="#F0F0F0"/>
<path d="M101.17 291.44H87.4V309.33H101.17V291.44Z" fill="white"/>
<path d="M118.09 309.34H132.33V291.45H118.09V309.34Z" fill="#F0F0F0"/>
<path d="M118.09 291.44H104.32V309.33H118.09V291.44Z" fill="white"/>
<path d="M135.01 309.34H149.25V291.45H135.01V309.34Z" fill="#F0F0F0"/>
<path d="M135.01 291.44H121.24V309.33H135.01V291.44Z" fill="white"/>
<path d="M151.92 309.34H166.16V291.45H151.92V309.34Z" fill="#F0F0F0"/>
<path d="M151.93 291.44H138.16V309.33H151.93V291.44Z" fill="white"/>
<path d="M386.59 204.08H372.6V229.33H386.59V204.08Z" fill="#E6E6E6"/>
<path d="M386.6 229.34H400.13V204.09H386.6V229.34Z" fill="white"/>
<path d="M369.96 204.08H355.97V229.33H369.96V204.08Z" fill="#E6E6E6"/>
<path d="M369.96 229.34H383.49V204.09H369.96V229.34Z" fill="white"/>
<path d="M353.33 204.08H339.34V229.33H353.33V204.08Z" fill="#E6E6E6"/>
<path d="M353.34 229.34H366.87V204.09H353.34V229.34Z" fill="white"/>
<path d="M336.71 204.08H322.72V229.33H336.71V204.08Z" fill="#E6E6E6"/>
<path d="M336.72 229.34H350.25V204.09H336.72V229.34Z" fill="white"/>
<path d="M300.33 204.08H286.34V229.33H300.33V204.08Z" fill="#E6E6E6"/>
<path d="M300.34 229.34H313.87V204.09H300.34V229.34Z" fill="white"/>
<path d="M283.7 204.08H269.71V229.33H283.7V204.08Z" fill="#E6E6E6"/>
<path d="M283.71 229.34H297.24V204.09H283.71V229.34Z" fill="white"/>
<path d="M267.08 204.08H253.09V229.33H267.08V204.08Z" fill="#E6E6E6"/>
<path d="M267.08 229.34H280.61V204.09H267.08V229.34Z" fill="white"/>
<path d="M250.45 204.08H236.46V229.33H250.45V204.08Z" fill="#E6E6E6"/>
<path d="M250.46 229.34H263.99V204.09H250.46V229.34Z" fill="white"/>
<path d="M363.79 291.45H329.69V309.28H363.79V291.45Z" fill="#E6E6E6"/>
<path d="M363.79 309.27H396.76V291.44H363.79V309.27Z" fill="white"/>
<path d="M323.27 291.45H289.17V309.28H323.27V291.45Z" fill="#E6E6E6"/>
<path d="M323.28 309.27H356.25V291.44H323.28V309.27Z" fill="white"/>
<path d="M282.76 291.45H248.66V309.28H282.76V291.45Z" fill="#E6E6E6"/>
<path d="M282.76 309.27H315.73V291.44H282.76V309.27Z" fill="white"/>
<path d="M242.25 291.45H208.15V309.28H242.25V291.45Z" fill="#E6E6E6"/>
<path d="M242.25 309.27H275.22V291.44H242.25V309.27Z" fill="white"/>
<path d="M208.71 189.33C214.923 189.33 219.96 184.293 219.96 178.08C219.96 171.867 214.923 166.83 208.71 166.83C202.497 166.83 197.46 171.867 197.46 178.08C197.46 184.293 202.497 189.33 208.71 189.33Z" fill="#E6E6E6"/>
<path d="M238.71 189.33C244.923 189.33 249.96 184.293 249.96 178.08C249.96 171.867 244.923 166.83 238.71 166.83C232.497 166.83 227.46 171.867 227.46 178.08C227.46 184.293 232.497 189.33 238.71 189.33Z" fill="#E6E6E6"/>
<path d="M268.71 189.33C274.923 189.33 279.96 184.293 279.96 178.08C279.96 171.867 274.923 166.83 268.71 166.83C262.497 166.83 257.46 171.867 257.46 178.08C257.46 184.293 262.497 189.33 268.71 189.33Z" fill="#E6E6E6"/>
<path d="M298.71 189.33C304.923 189.33 309.96 184.293 309.96 178.08C309.96 171.867 304.923 166.83 298.71 166.83C292.497 166.83 287.46 171.867 287.46 178.08C287.46 184.293 292.497 189.33 298.71 189.33Z" fill="#E6E6E6"/>
<path d="M89.8818 269.149C93.8702 268.208 96.3403 264.212 95.399 260.223C94.4576 256.235 90.4613 253.765 86.4729 254.706C82.4846 255.648 80.0145 259.644 80.9558 263.632C81.8971 267.621 85.8935 270.091 89.8818 269.149Z" fill="#E6E6E6"/>
<path d="M109.663 269.146C113.651 268.204 116.121 264.208 115.18 260.22C114.239 256.231 110.242 253.761 106.254 254.703C102.266 255.644 99.7956 259.64 100.737 263.629C101.678 267.617 105.675 270.087 109.663 269.146Z" fill="#E6E6E6"/>
<path d="M134.606 264.756C136.174 260.97 134.376 256.63 130.59 255.062C126.804 253.493 122.463 255.291 120.895 259.077C119.327 262.863 121.125 267.204 124.911 268.772C128.697 270.34 133.037 268.542 134.606 264.756Z" fill="#E6E6E6"/>
<path d="M152.774 267.17C155.672 264.272 155.672 259.574 152.775 256.676C149.877 253.779 145.179 253.779 142.281 256.676C139.383 259.574 139.383 264.272 142.281 267.17C145.179 270.067 149.877 270.067 152.774 267.17Z" fill="#E6E6E6"/>
<path d="M340.006 344.586C341.635 340.652 339.767 336.142 335.833 334.512C331.899 332.883 327.389 334.751 325.76 338.685C324.13 342.619 325.998 347.129 329.932 348.758C333.866 350.388 338.376 348.52 340.006 344.586Z" fill="white"/>
<path d="M354.135 347.911C358.266 346.932 360.82 342.789 359.841 338.659C358.861 334.529 354.719 331.974 350.589 332.954C346.458 333.933 343.904 338.075 344.883 342.205C345.863 346.336 350.005 348.89 354.135 347.911Z" fill="white"/>
<path d="M381.104 344.584C382.734 340.65 380.865 336.14 376.931 334.511C372.997 332.881 368.487 334.749 366.858 338.683C365.228 342.617 367.096 347.127 371.03 348.757C374.964 350.386 379.475 348.518 381.104 344.584Z" fill="white"/>
<path d="M401.658 344.578C403.288 340.644 401.419 336.134 397.486 334.505C393.552 332.875 389.041 334.743 387.412 338.677C385.782 342.611 387.651 347.122 391.585 348.751C395.519 350.381 400.029 348.512 401.658 344.578Z" fill="white"/>
<path d="M348.915 336.319C351.926 333.308 351.926 328.427 348.915 325.416C345.904 322.405 341.022 322.405 338.011 325.416C335.001 328.427 335.001 333.308 338.011 336.319C341.022 339.33 345.904 339.33 348.915 336.319Z" fill="white"/>
<path d="M371.138 333.818C372.767 329.884 370.899 325.373 366.965 323.744C363.031 322.114 358.521 323.983 356.892 327.917C355.262 331.851 357.13 336.361 361.064 337.99C364.998 339.62 369.508 337.752 371.138 333.818Z" fill="white"/>
<path d="M385.167 337.174C389.297 336.194 391.851 332.052 390.872 327.922C389.893 323.791 385.75 321.237 381.62 322.216C377.49 323.196 374.935 327.338 375.915 331.468C376.894 335.599 381.036 338.153 385.167 337.174Z" fill="white"/>
<path d="M238.557 347.084C241.568 344.073 241.568 339.191 238.557 336.18C235.546 333.17 230.665 333.17 227.654 336.18C224.643 339.191 224.643 344.073 227.654 347.084C230.665 350.095 235.546 350.095 238.557 347.084Z" fill="white"/>
<path d="M260.776 344.585C262.405 340.651 260.537 336.141 256.603 334.511C252.669 332.882 248.159 334.75 246.529 338.684C244.9 342.618 246.768 347.128 250.702 348.757C254.636 350.387 259.146 348.519 260.776 344.585Z" fill="white"/>
<path d="M275.965 349.152C280.109 348.174 282.675 344.021 281.697 339.877C280.719 335.733 276.567 333.166 272.422 334.144C268.278 335.122 265.712 339.275 266.69 343.419C267.668 347.563 271.82 350.13 275.965 349.152Z" fill="white"/>
<path d="M301.874 344.573C303.503 340.639 301.635 336.129 297.701 334.5C293.767 332.87 289.257 334.738 287.628 338.672C285.998 342.606 287.866 347.116 291.8 348.746C295.734 350.375 300.244 348.507 301.874 344.573Z" fill="white"/>
<path d="M250.799 333.818C252.429 329.884 250.561 325.374 246.627 323.744C242.693 322.115 238.183 323.983 236.553 327.917C234.924 331.851 236.792 336.361 240.726 337.991C244.66 339.62 249.17 337.752 250.799 333.818Z" fill="white"/>
<path d="M269.681 336.323C272.692 333.312 272.692 328.431 269.681 325.42C266.67 322.409 261.788 322.409 258.777 325.42C255.767 328.431 255.767 333.312 258.777 336.323C261.788 339.334 266.67 339.334 269.681 336.323Z" fill="white"/>
<path d="M291.898 333.817C293.527 329.883 291.659 325.372 287.725 323.743C283.791 322.113 279.281 323.982 277.652 327.916C276.022 331.85 277.89 336.36 281.824 337.989C285.758 339.619 290.268 337.751 291.898 333.817Z" fill="white"/>
<path d="M376.96 249.2L382.61 269.33H353.01L376.96 249.2Z" fill="#E0E0E0"/>
<path d="M376.96 249.2L366.67 269.33H397.9L376.96 249.2Z" fill="white"/>
<path d="M330.15 249.2L335.8 269.33H306.19L330.15 249.2Z" fill="#E0E0E0"/>
<path d="M330.15 249.2L319.86 269.33H351.09L330.15 249.2Z" fill="white"/>
<path d="M283.33 249.2L288.99 269.33H259.38L283.33 249.2Z" fill="#E0E0E0"/>
<path d="M283.33 249.2L273.04 269.33H304.28L283.33 249.2Z" fill="white"/>
<path d="M90.7 209.78L87.55 229.33H104.06L90.7 209.78Z" fill="#F5F5F5"/>
<path d="M90.7 209.78L96.44 229.33H79.02L90.7 209.78Z" fill="white"/>
<path d="M116.81 209.78L113.66 229.33H130.17L116.81 209.78Z" fill="#F5F5F5"/>
<path d="M116.81 209.78L122.55 229.33H105.13L116.81 209.78Z" fill="white"/>
<path d="M142.92 209.78L139.76 229.33H156.28L142.92 209.78Z" fill="#F5F5F5"/>
<path d="M142.92 209.78L148.66 229.33H131.24L142.92 209.78Z" fill="white"/>
<path d="M236.52 249.2L242.17 269.33H212.57L236.52 249.2Z" fill="#E0E0E0"/>
<path d="M236.52 249.2L226.23 269.33H257.47L236.52 249.2Z" fill="white"/>
<path d="M250 427.56C357.082 427.56 443.89 422.492 443.89 416.24C443.89 409.988 357.082 404.92 250 404.92C142.917 404.92 56.11 409.988 56.11 416.24C56.11 422.492 142.917 427.56 250 427.56Z" fill="#F5F5F5"/>
<path d="M292 285.69H374.79C376.479 285.69 378.1 286.361 379.294 287.556C380.489 288.75 381.16 290.371 381.16 292.06C381.16 293.749 380.489 295.37 379.294 296.564C378.1 297.759 376.479 298.43 374.79 298.43H292V285.69Z" fill="#A0A5F1"/>
<path opacity="0.6" d="M292 285.69H374.79C376.479 285.69 378.1 286.361 379.294 287.556C380.489 288.75 381.16 290.371 381.16 292.06C381.16 293.749 380.489 295.37 379.294 296.564C378.1 297.759 376.479 298.43 374.79 298.43H292V285.69Z" fill="white"/>
<path d="M375.987 248.155C377.201 243.011 374.015 237.857 368.871 236.643C363.727 235.429 358.573 238.615 357.358 243.759C356.144 248.903 359.33 254.057 364.474 255.271C369.618 256.485 374.773 253.299 375.987 248.155Z" fill="#A0A5F1"/>
<path opacity="0.8" d="M375.987 248.155C377.201 243.011 374.015 237.857 368.871 236.643C363.727 235.429 358.573 238.615 357.358 243.759C356.144 248.903 359.33 254.057 364.474 255.271C369.618 256.485 374.773 253.299 375.987 248.155Z" fill="white"/>
<path d="M300.81 247.25H379.92L372.34 285.69H308.38L300.81 247.25Z" fill="#263238"/>
<path d="M298.6 243.56H382.12C382.304 243.559 382.485 243.601 382.65 243.682C382.815 243.764 382.958 243.882 383.069 244.029C383.18 244.176 383.254 244.346 383.288 244.527C383.321 244.708 383.311 244.894 383.26 245.07L382.26 248.48C382.187 248.726 382.036 248.941 381.831 249.094C381.625 249.247 381.376 249.33 381.12 249.33H299.59C299.334 249.33 299.084 249.247 298.879 249.094C298.674 248.941 298.523 248.726 298.45 248.48L297.45 245.07C297.398 244.893 297.389 244.706 297.423 244.524C297.456 244.343 297.532 244.172 297.644 244.025C297.756 243.878 297.901 243.759 298.067 243.679C298.233 243.598 298.415 243.557 298.6 243.56V243.56Z" fill="#A0A5F1"/>
<path opacity="0.6" d="M298.6 243.56H382.12C382.304 243.559 382.485 243.601 382.65 243.682C382.815 243.764 382.958 243.882 383.069 244.029C383.18 244.176 383.254 244.346 383.288 244.527C383.321 244.708 383.311 244.894 383.26 245.07L382.26 248.48C382.187 248.726 382.036 248.941 381.831 249.094C381.625 249.247 381.376 249.33 381.12 249.33H299.59C299.334 249.33 299.084 249.247 298.879 249.094C298.674 248.941 298.523 248.726 298.45 248.48L297.45 245.07C297.398 244.893 297.389 244.706 297.423 244.524C297.456 244.343 297.532 244.172 297.644 244.025C297.756 243.878 297.901 243.759 298.067 243.679C298.233 243.598 298.415 243.557 298.6 243.56V243.56Z" fill="white"/>
<path d="M346.53 239H308.53V243.56H346.53V239Z" fill="#A0A5F1"/>
<path opacity="0.2" d="M346.53 239H308.53V243.56H346.53V239Z" fill="black"/>
<path d="M330.36 251.88C330.271 252.153 330.09 252.387 329.847 252.54C329.604 252.694 329.315 252.757 329.03 252.72C326.03 252.21 324.55 249.48 325.64 246.19L333.29 223.1C334.5 219.45 338.45 216.49 342.09 216.49H355.64C359.28 216.49 361.26 219.49 360.06 223.1L353.27 243.56H351L357.78 223.1C358.58 220.71 357.28 218.76 354.89 218.76H341.34C340.059 218.844 338.831 219.299 337.804 220.07C336.778 220.841 335.998 221.894 335.56 223.1L327.91 246.19C327.26 248.14 328.01 249.8 329.6 250.34C329.751 250.391 329.891 250.471 330.011 250.576C330.132 250.681 330.23 250.809 330.3 250.952C330.371 251.095 330.413 251.251 330.423 251.41C330.433 251.569 330.412 251.729 330.36 251.88Z" fill="#A0A5F1"/>
<path d="M308.79 240.62H179.99C175.213 240.62 171.34 244.493 171.34 249.27V407.59C171.34 412.367 175.213 416.24 179.99 416.24H308.79C313.567 416.24 317.44 412.367 317.44 407.59V249.27C317.44 244.493 313.567 240.62 308.79 240.62Z" fill="#A0A5F1"/>
<path d="M206.9 306.22H86.9C85.2096 306.223 83.5894 306.896 82.3951 308.092C81.2008 309.288 80.53 310.91 80.53 312.6V312.6C80.526 313.439 80.6879 314.271 81.0062 315.047C81.3246 315.823 81.7932 316.529 82.3851 317.124C82.977 317.718 83.6805 318.19 84.4553 318.512C85.2301 318.834 86.0609 319 86.9 319H206.9V306.22Z" fill="#A0A5F1"/>
<path opacity="0.3" d="M206.9 322.5L171.49 338.53V318.96H206.9V322.5Z" fill="#263238"/>
<path opacity="0.7" d="M206.9 306.22H130.47C128.78 306.223 127.159 306.896 125.965 308.092C124.771 309.288 124.1 310.91 124.1 312.6C124.103 314.289 124.775 315.907 125.969 317.101C127.163 318.295 128.781 318.967 130.47 318.97H206.9V306.22Z" fill="white"/>
<path opacity="0.7" d="M308.79 240.62H219.89C215.113 240.62 211.24 244.493 211.24 249.27V407.59C211.24 412.367 215.113 416.24 219.89 416.24H308.79C313.567 416.24 317.44 412.367 317.44 407.59V249.27C317.44 244.493 313.567 240.62 308.79 240.62Z" fill="white"/>
<path d="M138.79 318.97H127.94V416.24H138.79V318.97Z" fill="#A0A5F1"/>
<path opacity="0.7" d="M138.79 318.97H127.94V416.24H138.79V318.97Z" fill="white"/>
<path opacity="0.3" d="M138.79 323.19L127.94 325.54V318.96H138.79V323.19Z" fill="#A0A5F1"/>
<path opacity="0.3" d="M305.02 261.38H223.65C222.286 261.38 221.18 262.486 221.18 263.85V291.64C221.18 293.004 222.286 294.11 223.65 294.11H305.02C306.384 294.11 307.49 293.004 307.49 291.64V263.85C307.49 262.486 306.384 261.38 305.02 261.38Z" fill="#A0A5F1"/>
<path d="M159.49 223.41H100.19L94.1799 306.23H165.5L159.49 223.41Z" fill="#A0A5F1"/>
<path opacity="0.3" d="M108.06 223.41H100.19L94.1799 306.23H110.14L108.06 223.41Z" fill="#263238"/>
<path d="M133.45 233.51C127.91 233.51 122.95 229.62 122.12 224.44C121.916 223.186 121.974 221.903 122.29 220.672C122.607 219.441 123.176 218.29 123.96 217.29C124.871 216.16 126.004 215.228 127.289 214.553C128.573 213.877 129.983 213.471 131.43 213.36C137.38 212.82 142.94 216.87 143.82 222.36C144.023 223.617 143.964 224.901 143.645 226.134C143.327 227.366 142.756 228.519 141.97 229.52C141.061 230.651 139.931 231.583 138.648 232.259C137.364 232.935 135.956 233.34 134.51 233.45C134.15 233.49 133.8 233.51 133.45 233.51ZM132.5 215.07C132.2 215.07 131.89 215.07 131.59 215.07C130.383 215.161 129.207 215.497 128.134 216.058C127.061 216.618 126.114 217.391 125.35 218.33C124.714 219.141 124.254 220.076 123.997 221.074C123.741 222.072 123.694 223.113 123.86 224.13C124.59 228.74 129.3 232.13 134.35 231.67C135.557 231.579 136.733 231.243 137.806 230.682C138.878 230.122 139.826 229.349 140.59 228.41C141.225 227.599 141.686 226.664 141.942 225.666C142.199 224.668 142.246 223.627 142.08 222.61C141.39 218.32 137.19 215.07 132.5 215.07Z" fill="#A0A5F1"/>
<path d="M129 233.51C128.65 233.51 128.3 233.51 127.94 233.51C126.494 233.4 125.086 232.995 123.802 232.319C122.519 231.643 121.388 230.711 120.48 229.58C119.693 228.58 119.122 227.427 118.806 226.194C118.489 224.961 118.432 223.676 118.64 222.42C119.51 216.92 125.07 212.87 131.02 213.42C132.468 213.53 133.877 213.935 135.162 214.611C136.447 215.287 137.58 216.219 138.49 217.35C139.277 218.349 139.846 219.5 140.163 220.731C140.48 221.962 140.537 223.246 140.33 224.5C139.47 229.62 134.5 233.51 129 233.51ZM130 215.07C125.3 215.07 121.1 218.32 120.41 222.65C120.244 223.667 120.291 224.708 120.547 225.706C120.804 226.704 121.264 227.639 121.9 228.45C122.664 229.389 123.612 230.162 124.684 230.722C125.757 231.283 126.933 231.619 128.14 231.71C133.19 232.16 137.9 228.78 138.64 224.17C138.807 223.152 138.76 222.111 138.501 221.112C138.243 220.113 137.779 219.179 137.14 218.37C136.378 217.432 135.432 216.658 134.361 216.098C133.29 215.537 132.116 215.201 130.91 215.11C130.52 215.08 130.22 215.07 129.92 215.07H130Z" fill="#A0A5F1"/>
<path d="M236.01 110.56H218.41V240.63H236.01V110.56Z" fill="#A0A5F1"/>
<path opacity="0.3" d="M236.01 180.2H218.41V214.19L236.01 212.02V180.2Z" fill="#263238"/>
<path opacity="0.3" d="M236.01 111.45H218.41V121.34L236.01 119.17V111.45Z" fill="#263238"/>
<path d="M181.25 204.39L176.34 133.14C176.299 132.54 176.382 131.937 176.583 131.37C176.785 130.803 177.101 130.283 177.511 129.844C177.922 129.404 178.419 129.053 178.971 128.813C179.523 128.574 180.118 128.45 180.72 128.45H290.13C291.241 128.447 292.312 128.867 293.126 129.625C293.939 130.383 294.434 131.421 294.51 132.53L299.41 203.78C299.453 204.381 299.371 204.984 299.17 205.551C298.969 206.119 298.653 206.639 298.242 207.08C297.831 207.52 297.334 207.87 296.781 208.11C296.228 208.349 295.632 208.472 295.03 208.47H185.62C184.51 208.472 183.44 208.052 182.628 207.294C181.816 206.536 181.324 205.498 181.25 204.39V204.39Z" fill="#263238"/>
<path d="M288.87 131.7H182.16C181.82 131.701 181.484 131.771 181.173 131.907C180.862 132.042 180.582 132.241 180.35 132.489C180.118 132.738 179.94 133.031 179.827 133.351C179.713 133.671 179.667 134.011 179.69 134.35L184.41 202.91C184.453 203.536 184.732 204.123 185.19 204.551C185.649 204.98 186.252 205.219 186.88 205.22H293.59C293.931 205.221 294.268 205.151 294.58 205.016C294.893 204.881 295.174 204.683 295.407 204.435C295.639 204.186 295.818 203.892 295.932 203.571C296.047 203.251 296.093 202.91 296.07 202.57L291.35 134C291.304 133.374 291.023 132.788 290.563 132.362C290.103 131.935 289.498 131.698 288.87 131.7Z" fill="#A0A5F1"/>
<path opacity="0.8" d="M288.87 131.7H182.16C181.82 131.701 181.484 131.771 181.173 131.907C180.862 132.042 180.582 132.241 180.35 132.489C180.118 132.738 179.94 133.031 179.827 133.351C179.713 133.671 179.667 134.011 179.69 134.35L184.41 202.91C184.453 203.536 184.732 204.123 185.19 204.551C185.649 204.98 186.252 205.219 186.88 205.22H293.59C293.931 205.221 294.268 205.151 294.58 205.016C294.893 204.881 295.174 204.683 295.407 204.435C295.639 204.186 295.818 203.892 295.932 203.571C296.047 203.251 296.093 202.91 296.07 202.57L291.35 134C291.304 133.374 291.023 132.788 290.563 132.362C290.103 131.935 289.498 131.698 288.87 131.7Z" fill="white"/>
<path d="M289.95 238.24H196.29V240.62H289.95V238.24Z" fill="#263238"/>
<path opacity="0.3" d="M263.88 197.19H193.4L189.49 140.43H259.97L263.88 197.19Z" fill="#A0A5F1"/>
<path opacity="0.3" d="M284.03 145.51H265.04L264.69 140.43H283.68L284.03 145.51Z" fill="#A0A5F1"/>
<path opacity="0.3" d="M285.43 165.98H266.44L265.45 151.5H284.44L285.43 165.98Z" fill="#A0A5F1"/>
<path d="M244.39 90.11H208.98V116.54H244.39V90.11Z" fill="#A0A5F1"/>
<path opacity="0.3" d="M223.71 90.11H208.98V116.54H223.71V90.11Z" fill="#263238"/>
<path d="M320.8 203.81L322.75 201.32C323.112 200.858 323.58 200.49 324.115 200.246C324.649 200.003 325.234 199.891 325.82 199.92L331.38 200.17C332.475 200.224 333.541 200.538 334.49 201.086C335.439 201.634 336.245 202.4 336.84 203.32L337.58 204.48C334.58 208.83 328.21 211.35 328.21 211.35L326.47 212.27C326.117 212.47 325.729 212.597 325.326 212.646C324.924 212.694 324.516 212.662 324.126 212.551C323.736 212.44 323.372 212.253 323.056 212.001C322.739 211.748 322.475 211.435 322.28 211.08L320.41 207.64C320.096 207.033 319.966 206.347 320.035 205.667C320.104 204.987 320.37 204.342 320.8 203.81V203.81Z" fill="#FF8B7B"/>
<path d="M340.15 153.94C340.73 154.65 341.15 155.15 341.57 155.75C341.99 156.35 342.41 156.9 342.82 157.47C343.64 158.63 344.39 159.81 345.14 160.99C346.596 163.381 347.931 165.845 349.14 168.37C349.76 169.63 350.32 170.93 350.89 172.23C351.46 173.53 351.94 174.86 352.4 176.23C353.359 178.952 354.134 181.735 354.72 184.56L354.83 185.02C354.901 185.349 354.934 185.684 354.93 186.02C354.926 187.807 354.586 189.578 353.93 191.24C353.371 192.618 352.65 193.924 351.78 195.13C350.308 197.111 348.564 198.875 346.6 200.37C344.844 201.718 342.977 202.915 341.02 203.95C339.093 204.974 337.087 205.84 335.02 206.54C334.212 206.817 333.334 206.811 332.53 206.524C331.725 206.236 331.042 205.684 330.593 204.958C330.143 204.232 329.953 203.375 330.054 202.527C330.156 201.678 330.542 200.89 331.15 200.29L331.4 200.05C332.63 198.82 334.05 197.49 335.28 196.19C336.499 194.938 337.648 193.62 338.72 192.24C339.655 191.091 340.444 189.832 341.07 188.49C341.57 187.37 341.51 186.49 341.36 186.49L341.57 187.91C340.82 185.75 340.02 183.61 339.05 181.48C338.08 179.35 337.05 177.26 335.89 175.18C334.73 173.1 333.54 171.06 332.25 169.06C331.61 168.06 330.95 167.06 330.25 166.06L329.25 164.62L328.33 163.32L328.09 162.98C327.003 161.39 326.569 159.443 326.878 157.542C327.187 155.642 328.215 153.932 329.75 152.769C331.285 151.606 333.209 151.077 335.122 151.294C337.036 151.51 338.793 152.454 340.03 153.93L340.15 153.94Z" fill="#FF8B7B"/>
<path d="M326.43 145.46C323.61 151.86 323.79 159.85 332.43 172.07C338.17 172.7 348.79 165.24 348.79 165.24C348.79 165.24 341.5 144.79 326.43 145.46Z" fill="#263238"/>
<path d="M321.62 123.21C319.95 129.41 317.89 140.77 321.91 144.9C321.91 144.9 316.04 144.02 303.58 151.73C299.97 146.55 302.65 144.9 302.65 144.9C309.65 143.25 309.89 138.13 309.04 133.31L321.62 123.21Z" fill="#FF8B7B"/>
<path d="M296.26 149.51C298.11 145.51 302.47 141.7 305.48 142.27C308.49 142.84 310.32 143.78 312.1 142.27C313.88 140.76 318.28 138.56 320.52 141.05C323.67 144.53 328.44 142.05 326.64 145.86C324.7 150 296.26 149.51 296.26 149.51Z" fill="#A0A5F1"/>
<path d="M299.09 111.83C298.97 112.68 298.43 113.34 297.89 113.3C297.35 113.26 297.01 112.54 297.13 111.69C297.25 110.84 297.79 110.19 298.33 110.23C298.87 110.27 299.22 111 299.09 111.83Z" fill="#263238"/>
<path d="M298.56 110.29L296.66 109.56C296.66 109.56 297.45 111.22 298.56 110.29Z" fill="#263238"/>
<path d="M298.91 113.43C297.891 115.313 296.634 117.057 295.17 118.62C296.12 119.74 298.05 119.4 298.05 119.4L298.91 113.43Z" fill="#FF5652"/>
<path d="M297.68 105.09C297.615 104.982 297.594 104.853 297.62 104.73C297.661 104.606 297.749 104.503 297.864 104.441C297.979 104.38 298.114 104.365 298.24 104.4C299.025 104.575 299.759 104.93 300.383 105.437C301.008 105.943 301.507 106.588 301.84 107.32C301.865 107.379 301.877 107.444 301.874 107.508C301.871 107.572 301.855 107.635 301.825 107.692C301.796 107.75 301.754 107.8 301.703 107.839C301.652 107.878 301.593 107.906 301.53 107.92C301.402 107.957 301.266 107.946 301.146 107.889C301.026 107.832 300.931 107.733 300.88 107.61C300.606 107.035 300.204 106.531 299.705 106.136C299.205 105.741 298.622 105.465 298 105.33C297.867 105.292 297.753 105.207 297.68 105.09Z" fill="#263238"/>
<path d="M326.92 110.77C325.03 120.77 324.45 125.04 318.74 129.84C310.15 137.07 298.34 133.25 297.22 123.04C296.22 113.86 299.45 99.04 309.76 95.73C311.952 94.9269 314.319 94.7288 316.614 95.1564C318.909 95.5839 321.046 96.6214 322.801 98.16C324.557 99.6985 325.865 101.681 326.59 103.9C327.315 106.119 327.429 108.492 326.92 110.77V110.77Z" fill="#FF8B7B"/>
<path d="M304.5 114C300.88 108.33 296.96 101.25 299.42 96.33C301.88 91.41 307.47 92.58 307.47 92.58C307.47 92.58 318.3 86.5 328 94.42C340.86 104.95 327.07 116.54 323.66 126.58C319.89 137.63 300.45 124.25 304.5 114Z" fill="#263238"/>
<path d="M359.92 95.62C354.69 76.17 331.75 85.11 325.08 96.62L327.8 97.33C355.17 79.67 341.69 105.2 341.92 115.61C342.15 126.02 352.47 132.43 352.47 132.43C352.47 132.43 365.14 115.06 359.92 95.62Z" fill="#263238"/>
<path d="M353 130C350.08 130 346 129.45 343.34 126.76C340.94 124.33 340.19 120.62 341.13 115.76C341.43 114.22 341.91 112.41 342.41 110.5C343.99 104.5 345.96 97.12 342.86 94.5C340.68 92.65 336.09 93.3 329.21 96.41C329.181 96.425 329.148 96.4337 329.116 96.4358C329.083 96.4378 329.05 96.433 329.019 96.4218C328.988 96.4105 328.96 96.393 328.936 96.3703C328.912 96.3477 328.893 96.3203 328.88 96.29C328.867 96.2598 328.86 96.2273 328.859 96.1943C328.858 96.1614 328.864 96.1286 328.876 96.098C328.888 96.0673 328.906 96.0393 328.929 96.0156C328.952 95.9919 328.98 95.973 329.01 95.96C336.17 92.71 340.81 92.11 343.18 94.12C346.52 96.94 344.6 104.21 342.9 110.63C342.39 112.53 341.9 114.33 341.62 115.86C340.72 120.58 341.42 124.14 343.7 126.45C347.95 130.75 356.39 129.29 356.48 129.27C356.513 129.265 356.546 129.266 356.579 129.274C356.611 129.281 356.642 129.295 356.668 129.315C356.695 129.334 356.718 129.359 356.736 129.387C356.753 129.416 356.765 129.447 356.77 129.48C356.775 129.513 356.774 129.546 356.766 129.579C356.759 129.611 356.745 129.642 356.725 129.668C356.706 129.695 356.681 129.718 356.653 129.736C356.624 129.753 356.593 129.765 356.56 129.77C355.381 129.939 354.191 130.016 353 130V130Z" fill="#263238"/>
<path d="M328.39 92.34C328.64 91.07 325.44 91.6 325.29 92.73C325.14 93.86 324.72 93.23 323.47 94.88C322.22 96.53 322.05 98.47 326.15 99.75C328.75 100.56 329.15 98.56 330.48 97.56C331.21 97.02 332.03 96.74 332.56 96.33C332.69 96.2285 332.787 96.0904 332.839 95.9333C332.89 95.7763 332.894 95.6075 332.848 95.4485C332.803 95.2896 332.712 95.1477 332.586 95.0411C332.459 94.9344 332.304 94.8679 332.14 94.85C330.46 94.71 328.13 93.59 328.39 92.34Z" fill="#A0A5F1"/>
<path d="M306.34 117.56C305.89 118.425 305.265 119.187 304.504 119.797C303.743 120.407 302.863 120.85 301.92 121.1C299.57 121.62 298.68 118.91 299.57 116.27C300.37 113.91 302.57 110.78 304.81 111.46C307.05 112.14 307.61 115.27 306.34 117.56Z" fill="#FF8B7B"/>
<path d="M349.13 421.17C356.9 420.01 357.05 418.72 361.22 417.26C364.79 416 365.79 416.18 368.67 415.21C371.08 414.4 370.26 412.11 368.67 409.67C367.88 408.45 367.76 407.29 366.89 405.12L355.08 406.87C353.94 410.17 353.53 414.39 346.79 416.8C342.78 418.24 346 421.63 349.13 421.17Z" fill="#263238"/>
<path d="M277.11 421.2C284.84 421.2 286.32 420.69 290.67 420.54C294.39 420.41 295 421.2 298.77 421.2C301.27 421.2 301.62 418.38 300.7 416.27C299.99 414.63 299.88 412.66 299.36 410.53H288.71C286.79 413.9 281.55 416.4 275.71 416.82C271.51 417.13 274 421.2 277.11 421.2Z" fill="#263238"/>
<path d="M286.14 210.63C286.14 210.63 284.6 266.21 287.9 301.51C287.69 334.64 288.71 410.51 288.71 410.51C288.97 412.2 297.85 411.51 299.36 410.51C299.36 410.51 316.01 355.24 308.62 301.51C327.11 245.45 323.12 210.63 323.12 210.63H286.14Z" fill="#263238"/>
<path d="M297.23 210.63C297.23 210.63 315.29 273.36 322.61 304.17C330.31 336.52 353.19 385.43 355.09 406.87C357.09 407.66 363.48 406.78 366.9 405.12C366.9 405.12 363.77 336.75 345.17 305.6C349.37 228.96 328.57 210.6 328.57 210.6L297.23 210.63Z" fill="#263238"/>
<path d="M353.55 402.58C353.732 404.049 353.809 405.53 353.78 407.01C353.77 407.138 353.787 407.266 353.83 407.387C353.872 407.508 353.939 407.619 354.026 407.713C354.114 407.807 354.22 407.882 354.337 407.933C354.455 407.984 354.582 408.01 354.71 408.01C359.13 408.01 365.24 406.13 367.17 405.47C367.349 405.411 367.506 405.298 367.617 405.145C367.728 404.992 367.789 404.809 367.79 404.62V400.43C367.789 400.296 367.759 400.164 367.702 400.042C367.645 399.921 367.562 399.813 367.459 399.727C367.357 399.64 367.237 399.577 367.107 399.541C366.978 399.506 366.842 399.498 366.71 399.52L354.27 401.61C354.051 401.654 353.856 401.777 353.723 401.956C353.59 402.136 353.528 402.358 353.55 402.58Z" fill="#A0A5F1"/>
<path d="M287.49 405.86C287.49 407.01 287.39 409.06 287.28 410.57C287.277 410.811 287.362 411.045 287.518 411.229C287.674 411.413 287.892 411.534 288.13 411.57C292.042 411.891 295.976 411.848 299.88 411.44C300.067 411.423 300.244 411.346 300.383 411.22C300.522 411.093 300.616 410.925 300.65 410.74L301.45 406.61C301.468 406.475 301.459 406.339 301.422 406.208C301.386 406.077 301.323 405.955 301.238 405.849C301.153 405.744 301.047 405.656 300.927 405.593C300.807 405.529 300.675 405.491 300.54 405.48L288.4 405C288.283 404.993 288.166 405.01 288.055 405.051C287.945 405.091 287.845 405.153 287.759 405.233C287.674 405.314 287.606 405.411 287.56 405.519C287.514 405.627 287.49 405.743 287.49 405.86Z" fill="#A0A5F1"/>
<path d="M283.74 160.68C283.504 167.151 283.597 173.629 284.02 180.09C284.35 188.52 284.93 196.81 286.14 210.63H328.57C327.72 198.68 329.11 185.06 336.73 158.17C337.18 156.764 337.31 155.274 337.11 153.811C336.91 152.348 336.385 150.948 335.574 149.714C334.763 148.481 333.686 147.444 332.422 146.68C331.158 145.916 329.74 145.445 328.27 145.3C326.59 145.13 324.8 144.99 322.97 144.9C316.558 144.445 310.122 144.445 303.71 144.9C301.61 145.09 299.44 145.36 297.37 145.65C293.711 146.193 290.353 147.988 287.868 150.728C285.383 153.469 283.924 156.985 283.74 160.68V160.68Z" fill="#263238"/>
<path d="M328.36 205.38C319.87 207.55 306.95 208.17 285.74 205.91C286.25 217.16 281.3 292.81 281.3 292.81C281.3 292.81 324.3 302.26 348.61 289.43C350.18 232.26 328.36 205.38 328.36 205.38Z" fill="#A0A5F1"/>
<path opacity="0.2" d="M312.13 251C312.13 251 323.8 240.13 329.56 232.71C329.1 240.49 322.15 247.47 312.13 251Z" fill="black"/>
<path d="M247.75 160.62L250.57 162.05C251.099 162.313 251.556 162.699 251.905 163.176C252.253 163.653 252.481 164.206 252.57 164.79L253.4 170.29C253.572 171.377 253.481 172.49 253.133 173.534C252.785 174.579 252.19 175.524 251.4 176.29L250.4 177.29C245.56 175.23 241.84 169.44 241.84 169.44L240.6 167.91C240.334 167.603 240.132 167.246 240.006 166.86C239.879 166.474 239.831 166.067 239.863 165.662C239.896 165.257 240.009 164.862 240.195 164.502C240.382 164.141 240.638 163.821 240.95 163.56L243.95 161.06C244.474 160.628 245.111 160.357 245.785 160.279C246.459 160.201 247.142 160.319 247.75 160.62V160.62Z" fill="#FF8B7B"/>
<path d="M298.4 161.62C298.09 162.48 297.86 163.08 297.59 163.77C297.32 164.46 297.03 165.08 296.75 165.77C296.19 167.07 295.57 168.32 294.94 169.57C293.666 172.071 292.257 174.501 290.72 176.85C289.96 178.03 289.15 179.19 288.33 180.34C287.51 181.49 286.63 182.61 285.7 183.7C283.874 185.934 281.896 188.039 279.78 190L279.5 190.27C279.246 190.511 278.968 190.726 278.67 190.91C277.446 191.671 276.089 192.193 274.67 192.45C273.489 192.667 272.284 192.714 271.09 192.59C269.273 192.372 267.499 191.88 265.83 191.13C263.233 189.933 260.803 188.404 258.6 186.58C256.596 184.943 254.705 183.172 252.94 181.28C251.195 179.431 249.569 177.474 248.07 175.42C247.551 174.709 247.298 173.838 247.355 172.959C247.413 172.081 247.776 171.25 248.383 170.612C248.99 169.974 249.802 169.569 250.677 169.469C251.551 169.368 252.434 169.577 253.17 170.06L253.34 170.17C255.2 171.38 257.17 172.7 259.09 173.88C261.01 175.06 262.95 176.21 264.85 177.18C266.551 178.098 268.349 178.826 270.21 179.35C270.749 179.519 271.318 179.573 271.88 179.51C272.01 179.51 272 179.41 271.88 179.41C271.643 179.417 271.41 179.479 271.2 179.59L270.1 180.51C271.56 178.75 272.98 176.95 274.29 175.02C275.6 173.09 276.87 171.11 278.04 169.02C279.21 166.93 280.35 164.87 281.4 162.73C281.93 161.67 282.4 160.59 282.93 159.52L283.64 157.92L284.28 156.47L284.45 156.09C285.237 154.321 286.678 152.925 288.471 152.194C290.264 151.463 292.27 151.454 294.069 152.168C295.869 152.883 297.323 154.266 298.126 156.027C298.929 157.789 299.02 159.793 298.38 161.62H298.4Z" fill="#FF8B7B"/>
<path d="M298.54 145.49C291.61 146.39 284.87 150.69 278.9 164.43C281.34 169.67 293.22 174.9 293.22 174.9C293.22 174.9 306.92 158 298.54 145.49Z" fill="#263238"/>
</svg>
